<svg width="500" height="420" viewBox="0 0 500 420" fill="none" xmlns="http://www.w3.org/2000/svg">
<path d="M406.606 67.575L494.764 67.4668C494.764 67.4668 490.366 62.5458 485.538 61.8962C485.538 61.8962 476.096 37.6161 460.364 37.4684C445.732 37.3208 439.895 52.4381 439.895 52.4381C439.895 52.4381 433.094 45.6668 426.634 48.7769C420.173 51.8869 416.512 60.7546 416.512 60.7546C416.512 60.7546 409.236 64.1697 406.606 67.575Z" fill="#EBEBEB"/>
<path d="M219.035 81.3342L107.551 81.4818C107.551 81.4818 107.551 75.2912 122.898 74.0609C122.898 74.0609 136.873 47.0152 158.283 50.6173C171.624 52.8613 178.458 68.7463 178.458 68.7463C178.458 68.7463 188.512 56.2273 196.593 58.6385C204.675 61.0498 209.458 74.3857 209.458 74.3857C209.458 74.3857 217.766 77.8895 219.035 81.3342Z" fill="#EBEBEB"/>
<path d="M386.658 152.118L310.854 152.216C310.854 152.216 318.006 146.429 321.18 146.429C324.353 146.429 333.647 127.001 345.469 127.808C357.291 128.615 363.604 143.063 363.604 143.063C363.604 143.063 378.078 139.126 386.658 152.118Z" fill="#EBEBEB"/>
<path d="M70.0684 133.989L5.23633 134.077C5.23633 134.077 8.45526 130.426 12.0369 129.973C12.0369 129.973 18.9055 112.1 30.4777 111.953C41.234 111.825 45.5637 122.917 45.5637 122.917C45.5637 122.917 50.5394 117.937 55.3111 120.2C60.0829 122.464 62.7804 128.989 62.7804 128.989C62.7804 128.989 68.1189 131.45 70.0684 133.989Z" fill="#EBEBEB"/>
<path d="M0 379.999L62.4972 379.763L125.006 379.674L250 379.507L375.006 379.674L437.503 379.763L500 379.999L437.503 380.235L375.006 380.324L250 380.491L125.006 380.324L62.4972 380.235L0 379.999Z" fill="#263238"/>
<path d="M284.536 419.239C399.076 419.239 491.93 411.409 491.93 401.75C491.93 392.091 399.076 384.261 284.536 384.261C169.995 384.261 77.1411 392.091 77.1411 401.75C77.1411 411.409 169.995 419.239 284.536 419.239Z" fill="#EBEBEB"/>
<g opacity="0.3">
<path d="M125.924 42.3894C125.924 53.3525 120.908 63.8666 111.981 71.6186C103.053 79.3707 90.945 83.7258 78.3196 83.7258C52.0128 83.7258 29.5029 65.213 29.5029 42.3894C29.5029 19.5659 51.9901 0 78.297 0C104.604 0 125.924 19.5462 125.924 42.3894Z" fill="#FFC727"/>
</g>
<g opacity="0.3">
<path d="M77.2092 76.1671C66.8664 76.1645 56.948 72.5956 49.6345 66.245C42.321 59.8944 38.211 51.2819 38.208 42.3008C38.208 23.6011 55.6741 7.57831 77.2092 7.57831C98.7444 7.57831 117.197 23.5912 117.197 42.3008C117.197 61.0104 98.7557 76.1671 77.2092 76.1671Z" fill="#FFC727"/>
</g>
<path d="M78.2065 71.1969C96.5789 71.1969 111.473 58.2641 111.473 42.3107C111.473 26.3572 96.5789 13.4244 78.2065 13.4244C59.8342 13.4244 44.9404 26.3572 44.9404 42.3107C44.9404 58.2641 59.8342 71.1969 78.2065 71.1969Z" fill="#FFC727"/>
<path d="M174.457 349.41L169.436 398.827H304.314C304.314 398.827 289.251 300.033 289.251 299.167C289.251 298.301 316.691 268.076 310.673 203.857C303.147 123.93 238.666 96.353 173.789 96.353C108.911 96.353 63.3701 148.427 57.0456 185.58L33.2437 269.237L64.3562 273.017C64.3562 273.017 65.6937 329.667 82.4911 344.194C99.2884 358.721 174.457 349.41 174.457 349.41Z" fill="white"/>
<path opacity="0.41" d="M174.457 349.41L169.436 398.827H304.314C304.314 398.827 289.251 300.033 289.251 299.167C289.251 298.301 316.691 268.076 310.673 203.857C303.147 123.93 238.666 96.353 173.789 96.353C108.911 96.353 63.3701 148.427 57.0456 185.58L33.2437 269.237L64.3562 273.017C64.3562 273.017 65.6937 329.667 82.4911 344.194C99.2884 358.721 174.457 349.41 174.457 349.41Z" fill="#685AD6"/>
<path d="M291.653 206.101C289.16 216.022 274.017 220.864 274.017 220.864C273.088 222.655 278.245 257.643 279.684 259.641C281.124 261.639 272.6 266.796 271.478 265.645C270.356 264.493 260.393 241.729 239.663 237.635C236.524 240.764 232.658 243.283 228.32 245.024C223.982 246.766 219.269 247.693 214.49 247.742C197.828 248.097 185.7 237.743 185.7 237.743C185.7 237.743 173.947 252.801 149.306 248.914C124.665 245.026 119.44 228.147 119.44 228.147C119.44 228.147 87.6024 236.503 75.3727 213.896C66.0106 196.603 76.2794 184.006 81.5839 179.075C82.4371 178.257 83.3535 177.491 84.3268 176.782C84.3268 176.782 81.6972 155.808 96.6244 144.815C111.552 133.821 131.262 135.14 131.262 135.14C131.262 135.14 139.196 113.911 162.012 109.777C184.828 105.644 198.644 117.129 198.644 117.129C205.421 114.525 212.745 113.164 220.156 113.13C227.567 113.096 234.906 114.391 241.714 116.933C265.403 125.505 264.678 145.937 264.678 145.937C264.678 145.937 281.906 150.858 287.618 163.072C293.331 175.286 283.991 187.539 283.991 187.539C283.991 187.539 294.135 196.18 291.653 206.101Z" fill="#9384FF"/>
<g style="mix-blend-mode:multiply" opacity="0.1">
<path d="M239.663 237.625C236.524 240.754 232.658 243.273 228.32 245.015C223.982 246.757 219.269 247.683 214.49 247.733C197.828 248.087 185.7 237.733 185.7 237.733C185.7 237.733 173.947 252.791 149.306 248.904C124.665 245.016 119.44 228.137 119.44 228.137C119.44 228.137 87.6024 236.493 75.3727 213.886C66.0106 196.594 76.2794 183.996 81.5839 179.065L84.3268 176.772C84.1794 177.126 75.4634 198.208 90.9233 211.406C106.383 224.604 128.723 216.012 128.723 216.012C128.723 216.012 131.579 236.877 150.734 241.65C172.009 246.955 185.802 232.911 185.802 232.911C185.802 232.911 210.681 256.443 239.663 237.625Z" fill="#222221"/>
</g>
<g opacity="0.1" style="mix-blend-mode:multiply">
<path d="M271.535 265.635C270.402 264.493 260.45 241.719 239.72 237.625C239.72 237.625 256.721 228.954 264.553 235.027C272.385 241.099 271.535 265.635 271.535 265.635Z" fill="#222221"/>
</g>
<path d="M248.867 101.058C250.08 100.467 252.063 99.6206 253.491 99.8568C253.731 99.9158 253.952 100.021 254.138 100.165C254.325 100.308 254.471 100.486 254.567 100.686C254.663 100.886 254.706 101.102 254.692 101.318C254.678 101.534 254.609 101.744 254.489 101.933C253.689 103.174 252.476 104.176 251.009 104.807C250.251 105.129 249.434 105.333 248.595 105.408C247.688 105.708 246.719 105.842 245.75 105.801H245.568C245.54 105.81 245.51 105.814 245.48 105.813C245.45 105.811 245.421 105.804 245.394 105.792C245.367 105.78 245.344 105.763 245.325 105.743C245.306 105.722 245.293 105.699 245.285 105.673L245.126 105.624C242.803 104.748 247.983 101.51 248.867 101.058Z" fill="#9384FF"/>
<g opacity="0.3" style="mix-blend-mode:multiply">
<path d="M248.867 101.058C250.08 100.467 252.063 99.6206 253.491 99.8568C253.731 99.9158 253.952 100.021 254.138 100.165C254.325 100.308 254.471 100.486 254.567 100.686C254.663 100.886 254.706 101.102 254.692 101.318C254.678 101.534 254.609 101.744 254.489 101.933C253.689 103.174 252.476 104.176 251.009 104.807C250.251 105.129 249.434 105.333 248.595 105.408C247.688 105.708 246.719 105.842 245.75 105.801H245.568C245.54 105.81 245.51 105.814 245.48 105.813C245.45 105.811 245.421 105.804 245.394 105.792C245.367 105.78 245.344 105.763 245.325 105.743C245.306 105.722 245.293 105.699 245.285 105.673L245.126 105.624C242.803 104.748 247.983 101.51 248.867 101.058Z" fill="#222221"/>
</g>
<path d="M224.033 105.152C223.466 106.471 222.548 108.744 223.648 110.073C223.71 110.155 223.8 110.22 223.905 110.258C224.01 110.297 224.125 110.308 224.237 110.289C224.894 110.114 225.457 109.74 225.824 109.236C227.22 108.008 228.291 106.53 228.963 104.906C229.439 103.774 228.748 102.081 227.082 102.091C225.416 102.101 224.498 104.04 224.033 105.152Z" fill="#9384FF"/>
<g opacity="0.3" style="mix-blend-mode:multiply">
<path d="M224.033 105.152C223.466 106.471 222.548 108.744 223.648 110.073C223.71 110.155 223.8 110.22 223.905 110.258C224.01 110.297 224.125 110.308 224.237 110.289C224.894 110.114 225.457 109.74 225.824 109.236C227.22 108.008 228.291 106.53 228.963 104.906C229.439 103.774 228.748 102.081 227.082 102.091C225.416 102.101 224.498 104.04 224.033 105.152Z" fill="#222221"/>
</g>
<path d="M211.463 116.086C211.871 117.189 213.243 118.527 214.093 116.874C214.118 116.829 214.131 116.78 214.131 116.731C214.131 116.681 214.118 116.633 214.093 116.588C215.226 114.62 216.36 112.504 215.226 110.299C214.512 108.862 212.767 108.803 211.599 109.935C209.933 111.539 210.795 114.305 211.463 116.086Z" fill="#9384FF"/>
<g opacity="0.3" style="mix-blend-mode:multiply">
<path d="M211.463 116.086C211.871 117.189 213.243 118.527 214.093 116.874C214.118 116.829 214.131 116.78 214.131 116.731C214.131 116.681 214.118 116.633 214.093 116.588C215.226 114.62 216.36 112.504 215.226 110.299C214.512 108.862 212.767 108.803 211.599 109.935C209.933 111.539 210.795 114.305 211.463 116.086Z" fill="#222221"/>
</g>
<path d="M246.385 105.811C244.424 107.022 240.502 107.78 239.221 107.937C238.734 108.222 230.743 111.657 227.819 113.773C225.871 115.189 224.076 116.758 222.458 118.458C225.811 116.597 229.383 115.05 233.112 113.842C236.512 112.74 240.479 112.287 243.925 113.586C243.925 113.685 239.459 115.397 237.544 116.263C235.628 117.129 234.143 118.104 232.319 118.773C228.882 119.903 225.158 120.205 221.54 119.649C221.495 119.641 221.452 119.624 221.415 119.6C219.087 122.163 217.233 125.025 215.918 128.084C212.676 135.957 212.858 143.959 214.139 151.419C214.037 151.281 213.912 151.163 213.787 151.025C213.436 150.619 213.058 150.231 212.654 149.864C212.273 147.545 212.061 145.208 212.019 142.866C212.024 142.83 212.024 142.794 212.019 142.758C208.968 141.375 206.515 139.173 205.026 136.479C203.578 133.192 202.441 129.808 201.625 126.361C205.336 128.132 208.251 130.937 209.899 134.323C210.851 136.231 211.609 138.207 212.166 140.229C212.223 139.116 212.302 138.014 212.45 136.912C212.017 132.986 211.949 129.037 212.246 125.101C212.381 123.378 212.631 121.663 212.994 119.964C212.509 118.901 212.16 117.796 211.951 116.667C211.92 116.274 212.006 115.881 212.2 115.525C212.374 115.133 212.713 114.813 213.149 114.63C213.585 114.447 214.085 114.415 214.547 114.541C214.63 114.56 214.703 114.602 214.756 114.661C214.809 114.719 214.839 114.791 214.841 114.866C214.841 115.073 214.841 115.289 214.841 115.506C214.598 116.996 214.219 118.467 213.708 119.905C213.217 122.15 212.918 124.423 212.812 126.706C212.699 129.117 212.812 131.509 212.948 133.91C213.366 132.089 213.946 130.299 214.683 128.556C215.311 125.099 216.517 121.74 218.264 118.586C219.387 116.66 220.639 114.793 222.016 112.996C222.233 111.633 222.613 110.294 223.149 109C223.557 108.134 224.135 107.494 224.917 107.534C226.153 107.534 226.187 108.321 225.767 109.217C225.137 110.326 224.37 111.372 223.478 112.336C221.033 115.345 218.981 118.58 217.357 121.982C216.913 123.006 216.535 124.051 216.224 125.111C219.053 120.158 223.203 115.862 228.329 112.582C231.782 110.546 235.43 108.772 239.233 107.278C240.921 106.195 242.497 105.044 244.163 103.862C244.668 103.384 245.321 103.042 246.044 102.878C246.238 102.868 246.431 102.9 246.605 102.972C246.78 103.045 246.93 103.155 247.042 103.292C247.949 104.335 247.461 105.142 246.385 105.811Z" fill="#455A64"/>
<g style="mix-blend-mode:multiply" opacity="0.1">
<path d="M186.528 146.724C189.512 145.576 192.711 144.909 195.97 144.756C197.621 144.653 199.28 144.692 200.923 144.874C202.581 145.067 204.212 145.413 205.785 145.907C207.358 146.452 208.843 147.17 210.206 148.043C211.532 148.921 212.734 149.932 213.787 151.055C215.882 153.246 217.427 155.794 218.321 158.535C216.733 156.155 214.81 153.957 212.597 151.99C210.47 150.076 207.902 148.573 205.06 147.581C202.15 146.67 199.086 146.184 195.992 146.144C192.824 146.075 189.654 146.269 186.528 146.724Z" fill="#222221"/>
<path d="M237.827 155.011C236.125 154.158 234.324 153.462 232.455 152.935C230.655 152.43 228.789 152.126 226.901 152.029C226.429 152.004 225.956 152.004 225.484 152.029C225.016 152 224.547 152 224.079 152.029L222.651 152.118C222.186 152.196 221.71 152.265 221.234 152.324L220.52 152.413L219.817 152.57L218.389 152.856C217.425 153.063 216.507 153.358 215.487 153.555C216.287 153.002 217.127 152.495 218.004 152.039C218.911 151.612 219.859 151.253 220.837 150.966C221.336 150.828 221.834 150.691 222.333 150.573L223.875 150.346C224.394 150.262 224.922 150.223 225.45 150.228C225.975 150.199 226.501 150.199 227.026 150.228C229.13 150.33 231.187 150.809 233.067 151.635C234.944 152.411 236.577 153.569 237.827 155.011Z" fill="#222221"/>
</g>
<path d="M282.212 151.104C278.926 152.74 275.518 154.183 272.011 155.425C270.345 156.125 268.617 156.708 266.843 157.167C265.868 157.398 264.836 157.363 263.884 157.068C263.346 156.979 262.863 156.724 262.524 156.35C262.441 156.271 262.39 156.171 262.377 156.064C260.892 154.903 260.45 153.033 259.997 151.301C259.062 147.847 258.549 144.317 258.467 140.77C258.467 139.481 258.161 137.817 258.841 136.577C259.26 135.839 259.781 135.77 260.439 135.357C262.003 134.373 262.048 133.103 263.182 131.883C263.441 131.533 263.805 131.252 264.234 131.068C264.663 130.884 265.142 130.805 265.619 130.839C267.999 131.253 267.749 135.268 267.885 136.745C268.18 139.784 268.18 142.839 267.885 145.878C267.689 148.623 267.207 151.347 266.446 154.017C269.634 149.836 273.497 146.074 277.916 142.847C279.503 141.675 282.042 139.756 284.331 140.455C285.261 140.74 285.159 141.351 285.76 141.784C287.029 142.699 288.412 141.784 289.738 142.335C294.702 144.5 283.923 150.258 282.212 151.104Z" fill="#9384FF"/>
<g opacity="0.3" style="mix-blend-mode:multiply">
<path d="M282.212 151.104C278.926 152.74 275.518 154.183 272.011 155.425C270.345 156.125 268.617 156.708 266.843 157.167C265.868 157.398 264.836 157.363 263.884 157.068C263.346 156.979 262.863 156.724 262.524 156.35C262.441 156.271 262.39 156.171 262.377 156.064C260.892 154.903 260.45 153.033 259.997 151.301C259.062 147.847 258.549 144.317 258.467 140.77C258.467 139.481 258.161 137.817 258.841 136.577C259.26 135.839 259.781 135.77 260.439 135.357C262.003 134.373 262.048 133.103 263.182 131.883C263.441 131.533 263.805 131.252 264.234 131.068C264.663 130.884 265.142 130.805 265.619 130.839C267.999 131.253 267.749 135.268 267.885 136.745C268.18 139.784 268.18 142.839 267.885 145.878C267.689 148.623 267.207 151.347 266.446 154.017C269.634 149.836 273.497 146.074 277.916 142.847C279.503 141.675 282.042 139.756 284.331 140.455C285.261 140.74 285.159 141.351 285.76 141.784C287.029 142.699 288.412 141.784 289.738 142.335C294.702 144.5 283.923 150.258 282.212 151.104Z" fill="#222221"/>
</g>
<path d="M278.699 135.662C275.14 141.902 271.15 147.935 267.716 154.224C267.625 154.381 267.319 154.224 267.398 154.106C270.073 148.348 273.677 142.975 276.942 137.463C278.658 134.76 279.976 131.88 280.863 128.891C281.407 126.853 281.543 124.954 283.13 123.389C283.194 123.319 283.279 123.264 283.375 123.231C283.471 123.198 283.575 123.188 283.677 123.201C283.779 123.214 283.876 123.25 283.957 123.305C284.038 123.361 284.101 123.434 284.139 123.517C285.091 125.485 282.382 128.349 280.954 130.229C280.416 132.102 279.66 133.922 278.699 135.662Z" fill="#263238"/>
<path d="M264.61 134.806C262.037 140.544 261.459 146.774 260.62 152.817C260.62 152.845 260.607 152.873 260.583 152.893C260.56 152.913 260.528 152.925 260.495 152.925C260.462 152.925 260.431 152.913 260.407 152.893C260.384 152.873 260.371 152.845 260.371 152.817C260.439 144.766 262.637 135.829 267.534 128.91C267.965 128.29 270.821 124.491 271.977 125.761C272.589 126.44 271.229 127.532 270.787 127.916C269.37 129.215 267.613 130.111 266.321 131.538C265.63 132.66 265.074 133.782 264.61 134.806Z" fill="#263238"/>
<path d="M290.588 136.794C289.938 139.533 288.683 142.136 286.893 144.461C283.266 149.48 278.075 153.486 272.578 156.921C272.453 157.009 272.295 156.812 272.408 156.734C277.656 153.072 282.836 149.234 286.451 144.234C287.396 142.934 288.215 141.568 288.899 140.15L289.058 139.815C289.05 139.803 289.046 139.79 289.046 139.776C289.046 139.762 289.05 139.748 289.058 139.737C289.309 138.059 289.34 136.362 289.149 134.678C288.976 133.963 289.109 133.218 289.523 132.581C289.541 132.555 289.568 132.534 289.601 132.522C289.633 132.509 289.669 132.506 289.704 132.512C291.314 132.877 290.803 135.79 290.588 136.794Z" fill="#263238"/>
<path d="M287.312 155.956C280.33 159.322 271.977 160.434 264.644 163.042C262.966 163.633 261.312 164.292 259.668 165.011C259.165 165.249 258.646 165.462 258.115 165.65C257.784 165.762 257.423 165.793 257.073 165.739C256.924 165.721 256.782 165.677 256.653 165.611C256.417 165.495 256.217 165.33 256.07 165.131C255.924 164.932 255.836 164.705 255.814 164.469C255.682 163.485 255.732 162.488 255.962 161.517C255.86 160.474 255.656 159.43 255.531 158.505C255.372 157.147 255.168 155.808 254.93 154.46C254.398 151.606 253.57 148.811 252.754 146.006C251.955 143.648 251.573 141.199 251.621 138.742C251.621 137.433 251.881 134.993 253.219 134.136C254.556 133.28 255.282 134.067 255.758 135.042C256.234 136.016 256.2 137.01 256.551 137.916C257.095 139.323 258.059 139.461 259.124 140.337C259.759 140.959 260.235 141.692 260.518 142.486C260.802 143.28 260.887 144.118 260.767 144.943C260.677 146.272 260.507 147.61 260.303 148.929C260.756 147.738 261.266 146.557 261.788 145.405C262.728 143.329 263.658 140.74 265.449 139.077C266.016 138.519 266.727 138.084 267.523 137.807C269.243 137.398 270.807 136.6 272.056 135.495C273.281 134.314 274.867 132.178 277.032 132.463C279.197 132.749 278.97 134.638 279.106 136.046C279.367 138.664 281.827 140.081 281.271 142.935C280.818 145.258 278.948 147.256 277.293 149.037C276.004 150.428 274.611 151.743 273.122 152.974C275.121 151.923 277.276 151.112 279.526 150.563C280.492 150.25 281.536 150.166 282.552 150.317C284.014 150.651 284.093 151.458 285.952 151.301C287.335 151.163 290.361 150.317 291.109 151.98C291.857 153.643 288.684 155.287 287.312 155.956Z" fill="#9384FF"/>
<g opacity="0.1" style="mix-blend-mode:multiply">
<path d="M287.312 155.956C280.33 159.322 271.977 160.434 264.644 163.042C262.966 163.633 261.312 164.292 259.668 165.011C259.165 165.249 258.646 165.462 258.115 165.65C257.784 165.762 257.423 165.793 257.073 165.739C256.924 165.721 256.782 165.677 256.653 165.611C256.417 165.495 256.217 165.33 256.07 165.131C255.924 164.932 255.836 164.705 255.814 164.469C255.682 163.485 255.732 162.488 255.962 161.517C255.86 160.474 255.656 159.43 255.531 158.505C255.372 157.147 255.168 155.808 254.93 154.46C254.398 151.606 253.57 148.811 252.754 146.006C251.955 143.648 251.573 141.199 251.621 138.742C251.621 137.433 251.881 134.993 253.219 134.136C254.556 133.28 255.282 134.067 255.758 135.042C256.234 136.016 256.2 137.01 256.551 137.916C257.095 139.323 258.059 139.461 259.124 140.337C259.759 140.959 260.235 141.692 260.518 142.486C260.802 143.28 260.887 144.118 260.767 144.943C260.677 146.272 260.507 147.61 260.303 148.929C260.756 147.738 261.266 146.557 261.788 145.405C262.728 143.329 263.658 140.74 265.449 139.077C266.016 138.519 266.727 138.084 267.523 137.807C269.243 137.398 270.807 136.6 272.056 135.495C273.281 134.314 274.867 132.178 277.032 132.463C279.197 132.749 278.97 134.638 279.106 136.046C279.367 138.664 281.827 140.081 281.271 142.935C280.818 145.258 278.948 147.256 277.293 149.037C276.004 150.428 274.611 151.743 273.122 152.974C275.121 151.923 277.276 151.112 279.526 150.563C280.492 150.25 281.536 150.166 282.552 150.317C284.014 150.651 284.093 151.458 285.952 151.301C287.335 151.163 290.361 150.317 291.109 151.98C291.857 153.643 288.684 155.287 287.312 155.956Z" fill="#222221"/>
</g>
<path d="M255.168 145.888V145.957C255.236 145.947 255.214 145.878 255.168 145.888Z" fill="#F1D1C5"/>
<path d="M281.577 155.73C274.686 159.548 262.717 158.81 258.093 165.306V165.621C257.761 165.732 257.401 165.763 257.05 165.709C256.007 163.446 256.506 160.916 256.608 158.495C256.851 154.836 256.557 151.165 255.735 147.571C255.735 147.472 255.871 147.443 255.917 147.571C256.861 150.342 257.353 153.214 257.379 156.104C257.458 159.056 256.54 162.59 257.526 165.463L257.594 165.168C257.594 161.851 259.136 158.515 260.7 155.562C262.717 151.754 265.233 148.201 267.67 144.569C267.761 144.421 267.999 144.569 267.908 144.717C265.823 148.289 263.658 151.852 261.708 155.484C260.445 157.692 259.425 159.999 258.66 162.373C262.468 154.657 272.839 150.238 276.069 142.226C276.084 142.189 276.116 142.158 276.157 142.14C276.199 142.122 276.246 142.12 276.29 142.133C276.334 142.146 276.369 142.174 276.39 142.21C276.41 142.246 276.413 142.287 276.398 142.325C273.133 150.838 262.638 155.562 258.705 163.682C259.335 163.02 260.067 162.438 260.881 161.95C262.556 160.511 264.466 159.294 266.548 158.338C269.949 156.793 273.666 156.035 276.953 154.273C277.078 154.214 277.202 154.381 277.1 154.46C274.573 156.34 271.263 157.049 268.282 158.22C266.491 158.917 264.792 159.781 263.216 160.798C264.18 160.404 265.167 160.056 266.174 159.755C271.263 158.19 276.534 157.462 281.453 155.464C281.491 155.459 281.529 155.465 281.562 155.482C281.595 155.498 281.621 155.524 281.635 155.554C281.65 155.585 281.652 155.619 281.641 155.651C281.631 155.683 281.608 155.71 281.577 155.73Z" fill="white"/>
<path d="M254.693 141.262C254.495 142.167 254.562 143.101 254.885 143.978C254.891 143.991 254.901 144.002 254.915 144.01C254.928 144.018 254.943 144.022 254.959 144.022C254.975 144.022 254.99 144.018 255.003 144.01C255.017 144.002 255.027 143.991 255.033 143.978C254.919 143.099 254.919 142.211 255.033 141.331C254.987 141.173 254.738 141.114 254.693 141.262Z" fill="white"/>
<path d="M276.647 139.402C276.522 139.894 276.534 140.386 276.432 140.917C276.432 141.085 276.67 141.104 276.738 140.977C277.006 140.493 277.093 139.95 276.987 139.422C276.942 139.294 276.681 139.244 276.647 139.402Z" fill="white"/>
<path d="M284.263 153.87C283.969 154.003 283.689 154.158 283.425 154.332C283.408 154.348 283.397 154.367 283.392 154.388C283.386 154.409 283.388 154.431 283.396 154.451C283.404 154.472 283.419 154.489 283.438 154.503C283.457 154.517 283.48 154.526 283.504 154.529C283.874 154.506 284.221 154.366 284.479 154.135C284.626 154.017 284.456 153.771 284.263 153.87Z" fill="white"/>
<path d="M254.636 161.733C254.874 164.036 255.486 166.507 254.171 168.78C254.058 168.977 254.273 169.154 254.443 169.007C255.747 167.786 264.338 164.863 263.953 163.603C263.715 162.836 261.334 163.79 261.006 162.727C261.017 162.098 261.167 161.477 261.448 160.897C261.629 160.287 261.788 159.657 261.901 159.037C262.015 158.417 261.992 157.728 261.414 157.511C260.836 157.295 259.997 158.003 259.544 158.495C259.09 158.987 258.818 159.352 258.467 159.785C258.116 160.218 257.538 161.153 257.039 160.375C256.54 159.598 256.461 158.869 255.792 158.357C254.273 157.196 254.534 161.044 254.636 161.733Z" fill="#455A64"/>
<path d="M251.496 192.165C251.168 191.505 250.794 190.846 250.363 190.196C250.025 189.663 249.646 189.15 249.229 188.661C249.229 188.238 249.309 187.805 249.354 187.382C249.604 185 249.955 182.628 250.431 180.276C250.556 179.616 250.703 178.957 250.85 178.307C251.19 176.782 251.576 175.266 251.984 173.75C252.562 171.523 253.469 169.369 254.681 167.343C255.111 166.658 255.596 166 256.132 165.375L256.597 164.863L257.107 164.332L257.537 163.918L257.606 163.859C257.64 163.825 257.689 163.805 257.741 163.802C257.793 163.799 257.844 163.814 257.883 163.844C257.922 163.874 257.946 163.917 257.949 163.962C257.952 164.007 257.935 164.052 257.9 164.086L257.492 164.538C257.399 164.646 257.312 164.758 257.231 164.873C257.084 165.05 256.937 165.247 256.789 165.434C256.642 165.621 256.676 165.601 256.631 165.69C255.993 166.607 255.462 167.576 255.044 168.583C253.491 172.205 253.094 176.299 252.55 180.02C252.278 181.863 252.059 183.704 251.893 185.541C251.876 185.695 251.876 185.85 251.893 186.004C251.723 188.021 251.576 190.088 251.496 192.165Z" fill="#455A64"/>
<path d="M250.907 180.591C250.907 180.591 251.224 172.609 249.479 168.564C247.733 164.519 242.179 159.302 242.179 159.302C241.201 163.204 241.5 167.266 243.043 171.028C244.585 174.791 247.309 178.103 250.907 180.591Z" fill="#455A64"/>
<path d="M251.723 186.013C251.723 186.013 255.066 178.563 258.523 175.453C261.98 172.343 269.427 169.43 269.427 169.43C268.554 173.354 266.433 176.987 263.304 179.918C260.175 182.849 256.163 184.961 251.723 186.013Z" fill="#455A64"/>
<g style="mix-blend-mode:multiply" opacity="0.1">
<path d="M219.715 179.843C223.487 179.065 227.397 178.925 231.23 179.429C235.13 179.913 238.877 181.075 242.247 182.844C243.934 183.754 245.49 184.835 246.883 186.063C248.25 187.306 249.431 188.695 250.397 190.196C252.309 193.15 253.363 196.464 253.468 199.851C252.582 196.678 251.08 193.659 249.025 190.925C246.995 188.264 244.313 186.025 241.171 184.37C240.389 183.947 239.584 183.573 238.768 183.189C237.952 182.805 237.113 182.5 236.24 182.205C234.517 181.609 232.743 181.129 230.936 180.768C227.253 180.063 223.485 179.752 219.715 179.843Z" fill="#222221"/>
<path d="M274.936 189.517C272.912 189.092 270.855 188.796 268.781 188.632C266.773 188.489 264.753 188.555 262.763 188.828C261.778 188.957 260.805 189.144 259.85 189.389C258.896 189.663 257.965 189.992 257.061 190.374C255.192 191.168 253.409 192.106 251.734 193.178C252.89 191.568 254.437 190.198 256.268 189.163C257.192 188.623 258.18 188.171 259.215 187.815C260.259 187.485 261.337 187.241 262.434 187.086C264.624 186.79 266.859 186.86 269.019 187.293C271.146 187.675 273.16 188.432 274.936 189.517Z" fill="#222221"/>
</g>
<path d="M87.9201 136.223C92.2498 139.294 97.7696 140.524 103.006 141.892C104.479 142.276 105.919 142.679 107.358 143.122C108.352 143.514 109.448 143.663 110.532 143.555C112.413 143.221 112.595 141.754 112.617 140.337C112.657 139.885 112.657 139.431 112.617 138.979V138.674C112.624 138.644 112.623 138.613 112.613 138.584C112.603 138.555 112.585 138.528 112.561 138.506C112.561 137.955 112.459 137.414 112.413 136.902C112.141 133.949 111.835 130.997 111.541 128.103C111.435 125.72 111.09 123.349 110.509 121.017C110.26 120.2 109.988 119.108 109.036 118.684C108.478 118.517 107.911 118.376 107.336 118.261C106.845 118.079 106.407 117.803 106.055 117.454C105.126 116.608 103.471 114.049 101.737 114.866C100.853 115.289 100.603 116.273 100.41 117.041C99.9371 118.019 99.2391 118.903 98.359 119.639C97.0555 121.115 97.3842 123.015 98.0983 124.639C99.1188 126.745 100.444 128.729 102.043 130.544C103.618 132.453 105.341 134.264 106.939 136.164C107.828 137.208 108.652 138.292 109.41 139.412C109.784 139.963 110.124 140.514 110.441 141.085C110.692 141.473 110.886 141.886 111.019 142.315C109.093 140.23 107.01 138.258 104.785 136.41C102.519 134.442 100.501 132.109 97.9169 130.396C96.0082 129.055 93.6495 128.288 91.1957 128.212C89.8215 128.273 88.4453 128.13 87.1267 127.788C85.9626 127.365 84.7561 127.035 83.5224 126.804C80.7908 126.47 82.151 129.265 82.7403 130.396C83.9126 132.667 85.6877 134.663 87.9201 136.223Z" fill="#9384FF"/>
<g opacity="0.3" style="mix-blend-mode:multiply">
<path d="M87.9201 136.223C92.2498 139.294 97.7696 140.524 103.006 141.892C104.479 142.276 105.919 142.679 107.358 143.122C108.352 143.514 109.448 143.663 110.532 143.555C112.413 143.221 112.595 141.754 112.617 140.337C112.657 139.885 112.657 139.431 112.617 138.979V138.674C112.624 138.644 112.623 138.613 112.613 138.584C112.603 138.555 112.585 138.528 112.561 138.506C112.561 137.955 112.459 137.414 112.413 136.902C112.141 133.949 111.835 130.997 111.541 128.103C111.435 125.72 111.09 123.349 110.509 121.017C110.26 120.2 109.988 119.108 109.036 118.684C108.478 118.517 107.911 118.376 107.336 118.261C106.845 118.079 106.407 117.803 106.055 117.454C105.126 116.608 103.471 114.049 101.737 114.866C100.853 115.289 100.603 116.273 100.41 117.041C99.9371 118.019 99.2391 118.903 98.359 119.639C97.0555 121.115 97.3842 123.015 98.0983 124.639C99.1188 126.745 100.444 128.729 102.043 130.544C103.618 132.453 105.341 134.264 106.939 136.164C107.828 137.208 108.652 138.292 109.41 139.412C109.784 139.963 110.124 140.514 110.441 141.085C110.692 141.473 110.886 141.886 111.019 142.315C109.093 140.23 107.01 138.258 104.785 136.41C102.519 134.442 100.501 132.109 97.9169 130.396C96.0082 129.055 93.6495 128.288 91.1957 128.212C89.8215 128.273 88.4453 128.13 87.1267 127.788C85.9626 127.365 84.7561 127.035 83.5224 126.804C80.7908 126.47 82.151 129.265 82.7403 130.396C83.9126 132.667 85.6877 134.663 87.9201 136.223Z" fill="#222221"/>
</g>
<path d="M109.58 139.973C110.129 136.749 110.129 133.473 109.58 130.249C108.339 124.044 105.824 118.084 102.156 112.651C101.451 111.441 100.55 110.324 99.4809 109.335C99.0049 108.941 97.9394 108.508 97.9735 109.472C98.1871 110.393 98.805 111.205 99.6963 111.736C100.684 112.37 101.606 113.078 102.45 113.852C103.051 114.836 103.584 115.82 104.173 116.805C105.56 119.29 106.738 121.859 107.698 124.491C109.611 129.476 110.231 134.766 109.512 139.983L109.58 139.973Z" fill="#263238"/>
<path d="M108.787 141.41C105.072 140.932 101.458 139.981 98.0643 138.585C91.5811 135.763 85.7373 131.949 80.8136 127.326C79.675 126.398 78.7044 125.326 77.9347 124.147C77.6286 123.645 77.4586 122.631 78.5127 122.936C79.5668 123.241 80.1335 124.265 80.5189 125.023C80.9236 126.046 81.4358 127.034 82.049 127.975C82.9444 128.753 83.8511 129.511 84.7919 130.259C87.1314 132.129 89.6239 133.849 92.2498 135.406C97.1894 138.437 102.841 140.481 108.798 141.39C108.798 141.39 108.843 141.419 108.787 141.41Z" fill="#263238"/>
<path d="M90.1869 119.836C92.1364 122.093 94.1539 124.301 96.2394 126.46C100.4 130.741 104.815 134.831 109.466 138.713C109.466 138.713 109.557 138.713 109.466 138.654C104.933 134.717 100.637 130.515 96.5341 126.243C94.4788 124.111 92.4915 121.939 90.5723 119.728C90.1869 119.265 89.7902 118.812 89.4388 118.34C88.7928 116.874 88.3054 115.515 87.5347 114.088C87.1493 113.419 86.2312 111.864 85.3585 112.415C84.2591 113.143 88.2827 117.602 90.1869 119.836Z" fill="#263238"/>
<path d="M81.4821 136.016C82.7129 137.659 84.2667 139.102 86.0725 140.278C89.9419 142.807 94.36 144.632 99.0615 145.642C103.535 146.803 108.246 147.102 112.867 146.518H113.037C113.053 146.529 113.073 146.535 113.093 146.535C113.114 146.535 113.134 146.529 113.15 146.518C113.271 146.503 113.39 146.473 113.501 146.429C113.501 146.429 113.943 146.36 113.841 146.321C114.034 146.09 114.242 145.87 114.465 145.661C115.286 144.864 116.021 144.005 116.664 143.093C117.349 141.893 117.798 140.602 117.99 139.274C118.5 136.233 117.99 133.133 118.42 130.082C118.749 127.424 119.905 124.885 119.803 122.208C119.803 121.617 119.69 120.663 118.738 120.82C117.525 121.027 117.355 122.483 116.562 123.094C116.505 123.251 116.358 123.3 116.142 123.241C115.87 123.359 115.7 123.291 115.621 123.025C115.51 122.87 115.419 122.705 115.349 122.533C115.172 122.176 115.017 121.811 114.884 121.44C114.635 120.791 114.442 120.121 114.238 119.472C114.028 118.271 113.509 117.128 112.719 116.126C112.6 115.983 112.439 115.87 112.252 115.8C112.066 115.73 111.861 115.705 111.659 115.727C111.458 115.749 111.267 115.818 111.106 115.926C110.946 116.034 110.822 116.178 110.747 116.342C110.308 117.431 110.149 118.59 110.282 119.738C110.282 120.535 110.09 121.706 108.843 121.46C108.333 121.371 107.868 121.106 107.358 121.017C106.901 120.95 106.431 121.024 106.031 121.228C105.631 121.431 105.327 121.75 105.171 122.129C104.638 123.251 105.091 124.678 105.363 125.82C105.741 127.288 106.222 128.734 106.803 130.15C107.936 132.847 110.43 137.945 111.722 140.573C112.425 142.02 104.536 127.09 101.521 124.078C100.783 123.467 99.809 123.116 98.7895 123.094C98.1321 123.094 97.5201 123.32 96.8627 123.31C96.1892 123.259 95.5342 123.091 94.9359 122.818C93.3037 122.188 90.5155 121.44 90.0621 123.635C89.8468 124.619 90.3795 125.603 90.4022 126.588C90.2519 127.526 89.8898 128.429 89.3367 129.245C88.396 131.341 90.6515 133.182 92.227 134.579C94.1868 136.307 96.3184 137.881 98.5968 139.284C100.002 140.17 105.397 143.221 106.86 144.008C104.989 143.181 99.1975 140.071 97.3727 139.146C96.1713 138.546 94.9925 137.916 93.8364 137.266C92.6803 136.617 91.7623 135.967 90.6628 135.445C89.7715 135.062 88.7735 134.905 87.7839 134.993C86.4381 134.885 85.1064 134.671 83.8056 134.353C83.1029 134.255 81.7995 133.871 81.2894 134.491C80.8587 134.884 81.1194 135.573 81.4821 136.016Z" fill="#9384FF"/>
<g opacity="0.09" style="mix-blend-mode:multiply">
<path d="M81.4821 136.016C82.7129 137.659 84.2667 139.102 86.0725 140.278C89.9419 142.807 94.36 144.632 99.0615 145.642C103.535 146.803 108.246 147.102 112.867 146.518H113.037C113.053 146.529 113.073 146.535 113.093 146.535C113.114 146.535 113.134 146.529 113.15 146.518C113.271 146.503 113.39 146.473 113.501 146.429C113.501 146.429 113.943 146.36 113.841 146.321C114.034 146.09 114.242 145.87 114.465 145.661C115.286 144.864 116.021 144.005 116.664 143.093C117.349 141.893 117.798 140.602 117.99 139.274C118.5 136.233 117.99 133.133 118.42 130.082C118.749 127.424 119.905 124.885 119.803 122.208C119.803 121.617 119.69 120.663 118.738 120.82C117.525 121.027 117.355 122.483 116.562 123.094C116.505 123.251 116.358 123.3 116.142 123.241C115.87 123.359 115.7 123.291 115.621 123.025C115.51 122.87 115.419 122.705 115.349 122.533C115.172 122.176 115.017 121.811 114.884 121.44C114.635 120.791 114.442 120.121 114.238 119.472C114.028 118.271 113.509 117.128 112.719 116.126C112.6 115.983 112.439 115.87 112.252 115.8C112.066 115.73 111.861 115.705 111.659 115.727C111.458 115.749 111.267 115.818 111.106 115.926C110.946 116.034 110.822 116.178 110.747 116.342C110.308 117.431 110.149 118.59 110.282 119.738C110.282 120.535 110.09 121.706 108.843 121.46C108.333 121.371 107.868 121.106 107.358 121.017C106.901 120.95 106.431 121.024 106.031 121.228C105.631 121.431 105.327 121.75 105.171 122.129C104.638 123.251 105.091 124.678 105.363 125.82C105.741 127.288 106.222 128.734 106.803 130.15C107.936 132.847 110.43 137.945 111.722 140.573C112.425 142.02 104.536 127.09 101.521 124.078C100.783 123.467 99.809 123.116 98.7895 123.094C98.1321 123.094 97.5201 123.32 96.8627 123.31C96.1892 123.259 95.5342 123.091 94.9359 122.818C93.3037 122.188 90.5155 121.44 90.0621 123.635C89.8468 124.619 90.3795 125.603 90.4022 126.588C90.2519 127.526 89.8898 128.429 89.3367 129.245C88.396 131.341 90.6515 133.182 92.227 134.579C94.1868 136.307 96.3184 137.881 98.5968 139.284C100.002 140.17 105.397 143.221 106.86 144.008C104.989 143.181 99.1975 140.071 97.3727 139.146C96.1713 138.546 94.9925 137.916 93.8364 137.266C92.6803 136.617 91.7623 135.967 90.6628 135.445C89.7715 135.062 88.7735 134.905 87.7839 134.993C86.4381 134.885 85.1064 134.671 83.8056 134.353C83.1029 134.255 81.7995 133.871 81.2894 134.491C80.8587 134.884 81.1194 135.573 81.4821 136.016Z" fill="#222221"/>
</g>
<path d="M90.3345 140.809C97.0222 144.359 104.659 146.336 112.493 146.547C112.507 146.554 112.522 146.558 112.538 146.558C112.554 146.558 112.57 146.554 112.584 146.547H112.867H113.037C113.053 146.558 113.073 146.564 113.094 146.564C113.114 146.564 113.134 146.558 113.15 146.547C113.272 146.532 113.39 146.502 113.502 146.459C113.502 146.459 113.944 146.39 113.842 146.35C114.034 146.12 114.242 145.9 114.465 145.691C115.925 143.357 116.682 140.739 116.664 138.083C116.562 136.38 116.131 134.688 115.95 132.975C115.759 131.235 115.721 129.484 115.837 127.739C115.678 129.431 115.632 131.13 115.701 132.827C115.78 134.451 116.097 136.056 116.233 137.67C116.494 140.691 115.179 143.211 113.966 145.878C114.592 143.497 114.783 141.046 114.533 138.614C114.1 135.68 113.41 132.778 112.47 129.934C112.47 129.855 112.323 129.875 112.346 129.934C112.969 132.808 113.842 135.682 114.193 138.585C114.484 141.081 114.323 143.602 113.717 146.055C110.997 143.191 108.821 139.992 106.452 136.922C104.162 133.94 101.624 131.108 98.8578 128.448C98.8578 128.448 98.7332 128.448 98.7785 128.517C101.598 131.366 104.178 134.389 106.497 137.561C108.514 140.519 110.788 143.338 113.298 145.996C110.48 144.368 107.87 142.484 105.511 140.376C103.086 138.063 100.751 135.672 98.4385 133.27C100.705 135.81 102.972 138.398 105.5 140.79C107.88 142.95 110.588 144.821 113.547 146.35C106.055 146.114 99.1525 142.571 92.8507 139.136C97.7698 141.862 102.814 144.677 108.379 145.898C105.827 145.652 103.303 145.228 100.83 144.628C97.2141 143.691 93.7458 142.369 90.5045 140.691L90.3345 140.809Z" fill="white"/>
<path d="M112.198 122.69C112.198 122.602 112.368 122.602 112.356 122.69C112.254 124.415 112.254 126.143 112.356 127.867C112.349 127.887 112.334 127.904 112.315 127.916C112.296 127.928 112.273 127.935 112.249 127.935C112.225 127.935 112.202 127.928 112.182 127.916C112.163 127.904 112.148 127.887 112.141 127.867C111.818 126.151 111.837 124.4 112.198 122.69Z" fill="white"/>
<path d="M94.834 129.668C95.361 130.016 95.8504 130.405 96.2961 130.829C96.2961 130.889 96.2961 130.997 96.1827 130.948C95.662 130.582 95.1803 130.177 94.7433 129.737C94.7206 129.688 94.7206 129.619 94.834 129.668Z" fill="white"/>
<path d="M90.4589 137.926L91.2524 138.398C91.3657 138.457 91.2524 138.605 91.1617 138.536L90.4023 138.024C90.3343 138.004 90.3909 137.926 90.4589 137.926Z" fill="white"/>
<path d="M109.965 147.768C112.334 148.525 115.099 149.027 116.505 151.045C116.53 151.081 116.568 151.107 116.614 151.121C116.66 151.134 116.709 151.133 116.754 151.118C116.799 151.102 116.836 151.074 116.858 151.037C116.881 151 116.889 150.958 116.879 150.917C116.493 149.342 118.828 141.075 117.366 140.898C116.482 140.78 115.983 143.122 114.748 142.955C114.227 142.886 113.615 142.148 113.241 141.843C112.762 141.429 112.255 141.041 111.722 140.681C111.223 140.357 110.498 140.061 109.942 140.455C109.387 140.849 109.568 141.813 109.772 142.423C109.976 143.034 110.169 143.408 110.373 143.831C110.577 144.254 111.144 145.159 110.09 145.248C109.18 145.18 108.264 145.247 107.381 145.445C105.352 146.183 109.251 147.512 109.965 147.768Z" fill="#455A64"/>
<path d="M134.991 174.931H134.9L133.28 174.725C132.985 174.725 132.679 174.725 132.384 174.725C131.965 173.741 131.5 172.874 131.001 171.979C130.741 171.487 130.457 170.995 130.174 170.503C129.222 168.888 128.194 167.327 127.091 165.818C123.532 160.897 119.769 156.192 116.641 151.143C115.651 149.549 114.737 147.909 113.898 146.222C113.83 146.104 113.785 145.986 113.728 145.878C113.501 145.396 113.263 144.894 113.048 144.402C113.048 144.283 113.207 144.205 113.275 144.323C113.445 144.687 113.626 145.041 113.83 145.405C113.83 145.504 113.932 145.602 113.977 145.691C113.977 145.691 114.068 145.868 114.125 145.957C114.931 147.415 115.836 148.832 116.833 150.198C119.531 153.978 122.761 157.511 125.822 161.123C126.048 161.389 126.275 161.655 126.49 161.93C128.48 164.239 130.294 166.659 131.919 169.174C133.1 171.027 134.127 172.951 134.991 174.931Z" fill="#455A64"/>
<path d="M131.953 171.802C131.953 171.802 125.153 166.389 120.506 164.912C115.859 163.436 107.664 163.682 107.664 163.682C110.437 166.868 114.182 169.317 118.474 170.752C122.767 172.187 127.436 172.551 131.953 171.802Z" fill="#455A64"/>
<path d="M126.06 162.353C126.06 162.353 124.473 154.48 125.561 150.277C126.649 146.075 131.296 140.219 131.296 140.219C132.892 143.965 133.247 148.024 132.321 151.936C131.396 155.848 129.227 159.457 126.06 162.353Z" fill="#455A64"/>
<path d="M132.226 112.592C133.676 112.287 134.64 114.935 134.9 115.752C135.495 117.925 135.19 120.21 134.039 122.208C133.994 122.363 133.917 122.509 133.812 122.641C133.812 122.641 133.812 122.641 133.812 122.7L133.665 122.828C133.599 122.88 133.517 122.916 133.43 122.932C133.342 122.947 133.251 122.942 133.166 122.917C131.296 122.208 131.387 119.885 131.41 118.448C131.364 117.562 130.514 112.956 132.226 112.592Z" fill="#9384FF"/>
<g opacity="0.2" style="mix-blend-mode:multiply">
<path d="M132.226 112.592C133.676 112.287 134.64 114.935 134.9 115.752C135.495 117.925 135.19 120.21 134.039 122.208C133.994 122.363 133.917 122.509 133.812 122.641C133.812 122.641 133.812 122.641 133.812 122.7L133.665 122.828C133.599 122.88 133.517 122.916 133.43 122.932C133.342 122.947 133.251 122.942 133.166 122.917C131.296 122.208 131.387 119.885 131.41 118.448C131.364 117.562 130.514 112.956 132.226 112.592Z" fill="#222221"/>
</g>
<path d="M122.546 126.647C121.662 128.802 123.317 130.889 124.813 132.424C125.391 133.014 127.148 134.688 127.896 133.831C127.955 133.841 128.015 133.831 128.065 133.803C128.115 133.776 128.152 133.733 128.168 133.684C128.395 132.82 128.279 131.915 127.839 131.115C127.261 129.757 126.706 128.349 125.969 127.031C125.233 125.712 123.34 124.757 122.546 126.647Z" fill="#9384FF"/>
<g opacity="0.2" style="mix-blend-mode:multiply">
<path d="M122.546 126.647C121.662 128.802 123.317 130.889 124.813 132.424C125.391 133.014 127.148 134.688 127.896 133.831C127.955 133.841 128.015 133.831 128.065 133.803C128.115 133.776 128.152 133.733 128.168 133.684C128.395 132.82 128.279 131.915 127.839 131.115C127.261 129.757 126.706 128.349 125.969 127.031C125.233 125.712 123.34 124.757 122.546 126.647Z" fill="#222221"/>
</g>
<path d="M152.197 149.401C151.287 152.592 149.167 155.424 146.178 157.442C146.324 160.763 146.012 164.087 145.249 167.343C144.795 167.629 144.376 167.944 143.968 168.259C144.172 167.412 144.342 166.576 144.489 165.719C144.493 165.693 144.493 165.667 144.489 165.641C138.358 162.836 135.615 157.413 133.314 151.931C133.495 151.931 143.016 155.395 144.773 164.253C145.311 160.058 145.186 155.82 144.399 151.655C141.815 145.1 135.331 140.425 129.052 136.115C127.912 135.458 126.949 134.595 126.23 133.585C126.183 133.517 126.145 133.444 126.117 133.369C125.867 132.847 125.561 131.715 126.366 131.4C127.171 131.085 127.817 131.961 128.213 132.444C128.277 132.515 128.333 132.591 128.383 132.67C129.517 134.028 130.526 135.455 131.523 136.872C133.895 138.411 136.134 140.098 138.222 141.921C140.386 143.815 142.209 145.982 143.628 148.348C143.526 147.994 143.447 147.64 143.345 147.275C141.766 142.233 139.482 137.378 136.544 132.818C135.233 130.862 134.096 128.822 133.144 126.716C132.472 125.231 132.108 123.655 132.067 122.06C132.081 121.676 132.158 121.295 132.294 120.928C132.6 120.112 133.427 119.738 134.073 120.554C134.304 120.89 134.44 121.267 134.47 121.657C134.561 122.415 134.47 123.261 134.47 123.822C134.572 125.269 134.651 126.725 134.708 128.182C135.252 129.166 135.841 130.062 136.453 130.987C139.854 135.837 142.52 141.047 144.387 146.488C145.129 148.838 145.663 151.233 145.986 153.653C146.228 151.747 146.649 149.861 147.244 148.014C148.116 145.268 151.834 140.484 151.868 140.465C152.873 143.368 152.986 146.448 152.197 149.401Z" fill="#455A64"/>
<g style="mix-blend-mode:multiply" opacity="0.1">
<path d="M109.795 190.186C110.593 186.557 112.687 183.237 115.78 180.699C118.063 178.754 120.757 177.21 123.714 176.152L125.187 175.62L126.751 175.217C128.856 174.711 131.049 174.541 133.223 174.715L134.844 174.912C135.377 174.981 135.898 175.138 136.42 175.246L137.202 175.433L137.961 175.679C138.448 175.857 138.97 176.004 139.446 176.221C143.265 177.812 146.528 180.258 148.899 183.307C146.007 180.815 142.58 178.842 138.811 177.5C135.145 176.23 131.102 176.033 127.296 176.939C123.446 177.869 119.868 179.499 116.8 181.722C113.697 183.999 111.291 186.907 109.795 190.186Z" fill="#222221"/>
<path d="M167.985 165.375C165.07 165.005 162.118 164.903 159.178 165.07C156.314 165.22 153.493 165.751 150.814 166.644C148.158 167.57 145.716 168.903 143.605 170.581C141.475 172.349 139.595 174.332 138.006 176.486C138.906 173.94 140.425 171.591 142.46 169.597C143.502 168.596 144.669 167.698 145.94 166.92C147.235 166.167 148.613 165.527 150.054 165.011C155.868 163.14 162.288 163.28 167.985 165.404V165.375Z" fill="#222221"/>
<path d="M99.2544 177.362C100.571 176.523 102.104 175.976 103.72 175.768C105.368 175.519 107.06 175.589 108.673 175.975C110.297 176.346 111.793 177.052 113.037 178.032C113.657 178.499 114.209 179.031 114.68 179.616C115.124 180.198 115.503 180.814 115.814 181.457C115.122 181.063 114.567 180.6 113.932 180.226C113.331 179.841 112.707 179.482 112.062 179.154C110.829 178.509 109.497 178.019 108.106 177.697C106.705 177.366 105.263 177.184 103.811 177.156C102.288 177.135 100.766 177.204 99.2544 177.362Z" fill="#222221"/>
</g>
<g style="mix-blend-mode:multiply" opacity="0.1">
<path d="M169.062 209.851C171.424 208.59 174.033 207.716 176.758 207.272C179.512 206.798 182.337 206.712 185.123 207.016C186.513 207.186 187.888 207.439 189.237 207.774C190.571 208.158 191.868 208.635 193.113 209.201C195.576 210.315 197.775 211.821 199.597 213.64C197.322 212.407 194.929 211.347 192.445 210.471C191.223 210.053 189.974 209.698 188.704 209.408C187.439 209.133 186.156 208.926 184.862 208.788C182.253 208.496 179.616 208.45 176.996 208.65C174.318 208.86 171.664 209.261 169.062 209.851Z" fill="#222221"/>
<path d="M189.997 223.551C191.55 219.715 194.339 216.347 198.033 213.847C201.762 211.297 206.199 209.644 210.897 209.054C215.597 208.379 220.421 208.881 224.804 210.5C226.965 211.319 228.959 212.436 230.709 213.807C232.454 215.137 233.916 216.723 235.028 218.492C233.598 216.964 231.931 215.616 230.075 214.486C228.27 213.357 226.294 212.449 224.203 211.79C222.132 211.147 219.971 210.749 217.777 210.609C217.232 210.551 216.682 210.528 216.133 210.54H214.49C213.357 210.648 212.291 210.687 211.203 210.845L209.571 211.091C209.299 211.091 209.027 211.17 208.755 211.229L207.961 211.416L206.375 211.799C205.853 211.957 205.343 212.144 204.822 212.301C203.791 212.639 202.784 213.03 201.807 213.473C200.866 213.975 199.869 214.408 198.985 214.978C195.284 217.212 192.211 220.142 189.997 223.551Z" fill="#222221"/>
<path d="M235.028 218.472C233.598 216.944 231.931 215.596 230.075 214.467C228.272 213.336 226.296 212.432 224.203 211.78C222.138 211.13 219.979 210.729 217.788 210.589C217.239 210.532 216.686 210.509 216.133 210.52H214.49C213.357 210.628 212.291 210.648 211.203 210.815L209.571 211.061C209.299 211.061 209.027 211.14 208.755 211.199L207.961 211.396L206.363 211.78C205.853 211.918 205.343 212.114 204.822 212.282C203.934 212.555 203.07 212.883 202.238 213.266L201.807 213.443L200.775 213.955C200.16 214.256 199.562 214.585 198.985 214.939C195.281 217.178 192.208 220.115 189.997 223.531C191.546 219.696 194.336 216.33 198.033 213.837C198.688 213.36 199.377 212.92 200.095 212.518C200.549 212.272 201.013 212.026 201.478 211.799C204.41 210.414 207.597 209.482 210.897 209.044C215.596 208.359 220.422 208.858 224.804 210.481C226.961 211.301 228.951 212.417 230.698 213.788C232.449 215.115 233.915 216.701 235.028 218.472Z" fill="#222221"/>
</g>
<path d="M173.652 182.933C176.165 184.758 178.816 186.435 181.586 187.952C182.883 188.763 184.251 189.483 185.678 190.108C186.471 190.437 187.362 190.543 188.228 190.413C188.702 190.412 189.159 190.258 189.509 189.98C189.588 189.923 189.647 189.848 189.679 189.763C191.152 188.956 191.855 187.431 192.546 186.013C193.934 183.188 194.982 180.246 195.675 177.234C195.924 176.142 196.445 174.735 196.083 173.613C195.845 172.933 195.425 172.806 194.949 172.363C193.816 171.329 193.963 170.237 193.215 169.046C193.057 168.713 192.797 168.424 192.464 168.211C192.13 167.997 191.735 167.868 191.322 167.835C189.226 167.835 188.738 171.339 188.364 172.569C187.58 175.117 187.049 177.718 186.777 180.344C186.473 182.71 186.412 185.095 186.596 187.47C184.597 183.49 181.947 179.781 178.73 176.457C177.597 175.256 175.76 173.288 173.686 173.583C172.847 173.701 172.825 174.233 172.235 174.567C170.989 175.177 169.969 174.193 168.744 174.518C164.154 175.67 172.337 181.988 173.652 182.933Z" fill="#9384FF"/>
<g opacity="0.3" style="mix-blend-mode:multiply">
<path d="M173.652 182.933C176.165 184.758 178.816 186.435 181.586 187.952C182.883 188.763 184.251 189.483 185.678 190.108C186.471 190.437 187.362 190.543 188.228 190.413C188.702 190.412 189.159 190.258 189.509 189.98C189.588 189.923 189.647 189.848 189.679 189.763C191.152 188.956 191.855 187.431 192.546 186.013C193.934 183.188 194.982 180.246 195.675 177.234C195.924 176.142 196.445 174.735 196.083 173.613C195.845 172.933 195.425 172.806 194.949 172.363C193.816 171.329 193.963 170.237 193.215 169.046C193.057 168.713 192.797 168.424 192.464 168.211C192.13 167.997 191.735 167.868 191.322 167.835C189.226 167.835 188.738 171.339 188.364 172.569C187.58 175.117 187.049 177.718 186.777 180.344C186.473 182.71 186.412 185.095 186.596 187.47C184.597 183.49 181.947 179.781 178.73 176.457C177.597 175.256 175.76 173.288 173.686 173.583C172.847 173.701 172.825 174.233 172.235 174.567C170.989 175.177 169.969 174.193 168.744 174.518C164.154 175.67 172.337 181.988 173.652 182.933Z" fill="#222221"/>
</g>
<path d="M179.331 170.237C181.28 176.014 183.626 181.683 185.463 187.49C185.519 187.628 185.803 187.568 185.757 187.431C184.476 182.165 182.357 177.116 180.509 171.989C179.518 169.461 178.898 166.836 178.662 164.174C178.56 162.363 178.764 160.739 177.642 159.184C177.599 159.117 177.536 159.06 177.459 159.021C177.382 158.982 177.295 158.961 177.206 158.961C177.116 158.961 177.029 158.982 176.952 159.021C176.876 159.06 176.812 159.117 176.769 159.184C175.636 160.779 177.415 163.534 178.322 165.316C178.461 166.982 178.799 168.631 179.331 170.237Z" fill="#263238"/>
<path d="M191.481 171.388C192.683 176.605 192.093 181.988 191.753 187.254C191.753 187.28 191.765 187.305 191.786 187.323C191.808 187.342 191.836 187.352 191.867 187.352C191.897 187.352 191.925 187.342 191.947 187.323C191.968 187.305 191.98 187.28 191.98 187.254C193.317 180.364 192.966 172.491 190.019 165.936C189.758 165.355 187.979 161.743 186.777 162.668C186.143 163.17 187.106 164.282 187.412 164.637C188.547 165.811 189.61 167.036 190.597 168.308C190.994 169.42 191.266 170.404 191.481 171.388Z" fill="#263238"/>
<path d="M168.994 169.636C169.076 172.056 169.696 174.439 170.819 176.654C173.208 181.343 176.618 185.587 180.861 189.153C180.952 189.232 181.122 189.094 181.031 189.005C177.2 185.197 173.449 181.26 171.238 176.516C170.652 175.288 170.193 174.016 169.867 172.717C169.867 172.628 169.81 172.52 169.776 172.412C169.742 172.304 169.776 172.412 169.776 172.343C169.857 170.884 170.127 169.438 170.581 168.032C170.774 167.373 171.046 166.231 170.479 166.064C169.062 166.202 169.005 168.76 168.994 169.636Z" fill="#263238"/>
<path d="M168.461 186.397C173.834 190.177 180.759 192.224 186.596 195.403C187.922 196.131 189.214 196.909 190.495 197.706C190.882 197.979 191.287 198.232 191.708 198.464C191.971 198.603 192.273 198.674 192.581 198.67C192.712 198.678 192.843 198.662 192.966 198.621C193.185 198.549 193.381 198.433 193.539 198.283C193.697 198.132 193.811 197.951 193.873 197.755C194.159 196.942 194.289 196.095 194.258 195.245C194.53 194.369 194.881 193.503 195.142 192.736C195.52 191.601 195.928 190.479 196.366 189.37C197.307 186.998 198.497 184.734 199.687 182.48C200.787 180.576 201.551 178.539 201.954 176.437C202.124 175.315 202.373 173.209 201.387 172.304C200.401 171.398 199.631 171.979 199.121 172.737C198.61 173.495 198.406 174.351 197.987 175.089C197.284 176.221 196.446 176.211 195.38 176.821C194.731 177.269 194.2 177.831 193.821 178.471C193.442 179.11 193.224 179.813 193.181 180.532C193.023 181.673 192.943 182.835 192.887 183.986C192.705 182.903 192.479 181.841 192.229 180.787C191.787 178.898 191.447 176.565 190.212 174.882C189.824 174.336 189.297 173.874 188.67 173.534C187.299 172.954 186.126 172.071 185.27 170.975C184.42 169.804 183.445 167.776 181.552 167.737C179.66 167.698 179.524 169.341 179.161 170.522C178.481 172.717 176.135 173.603 176.123 176.103C176.123 178.14 177.347 180.089 178.447 181.821C179.305 183.187 180.267 184.502 181.326 185.758C179.801 184.602 178.104 183.629 176.282 182.864C175.514 182.468 174.637 182.257 173.743 182.254C172.44 182.352 172.224 183.031 170.683 182.628C169.549 182.333 167.101 181.181 166.149 182.529C165.197 183.878 167.407 185.649 168.461 186.397Z" fill="#9384FF"/>
<g opacity="0.1" style="mix-blend-mode:multiply">
<path d="M168.461 186.397C173.834 190.177 180.759 192.224 186.596 195.403C187.922 196.131 189.214 196.909 190.495 197.706C190.882 197.979 191.287 198.232 191.708 198.464C191.971 198.603 192.273 198.674 192.581 198.67C192.712 198.678 192.843 198.662 192.966 198.621C193.185 198.549 193.381 198.433 193.539 198.283C193.697 198.132 193.811 197.951 193.873 197.755C194.159 196.942 194.289 196.095 194.258 195.245C194.53 194.369 194.881 193.503 195.142 192.736C195.52 191.601 195.928 190.479 196.366 189.37C197.307 186.998 198.497 184.734 199.687 182.48C200.787 180.576 201.551 178.539 201.954 176.437C202.124 175.315 202.373 173.209 201.387 172.304C200.401 171.398 199.631 171.979 199.121 172.737C198.61 173.495 198.406 174.351 197.987 175.089C197.284 176.221 196.446 176.211 195.38 176.821C194.731 177.269 194.2 177.831 193.821 178.471C193.442 179.11 193.224 179.813 193.181 180.532C193.023 181.673 192.943 182.835 192.887 183.986C192.705 182.903 192.479 181.841 192.229 180.787C191.787 178.898 191.447 176.565 190.212 174.882C189.824 174.336 189.297 173.874 188.67 173.534C187.299 172.954 186.126 172.071 185.27 170.975C184.42 169.804 183.445 167.776 181.552 167.737C179.66 167.698 179.524 169.341 179.161 170.522C178.481 172.717 176.135 173.603 176.123 176.103C176.123 178.14 177.347 180.089 178.447 181.821C179.305 183.187 180.267 184.502 181.326 185.758C179.801 184.602 178.104 183.629 176.282 182.864C175.514 182.468 174.637 182.257 173.743 182.254C172.44 182.352 172.224 183.031 170.683 182.628C169.549 182.333 167.101 181.181 166.149 182.529C165.197 183.878 167.407 185.649 168.461 186.397Z" fill="#222221"/>
</g>
<path d="M197.613 182.028C197.613 182.028 197.613 182.097 197.613 182.087C197.613 182.077 197.568 182.008 197.613 182.028Z" fill="#F1D1C5"/>
<path d="M173.392 186.949C178.594 191.072 188.931 192.057 191.742 198.188V198.464C192.004 198.603 192.307 198.674 192.615 198.67C193.895 196.879 193.907 194.665 194.247 192.588C194.675 189.436 195.563 186.344 196.888 183.386C196.888 183.307 196.797 183.258 196.74 183.337C195.448 185.575 194.529 187.96 194.009 190.423C193.431 192.893 193.601 196.052 192.263 198.375C192.258 198.29 192.258 198.204 192.263 198.119C192.853 195.285 192.104 192.214 191.288 189.527C190.234 186.014 188.659 182.638 187.253 179.242C187.253 179.104 186.97 179.242 187.015 179.341C188.149 182.657 189.407 185.974 190.416 189.32C191.11 191.364 191.58 193.46 191.821 195.58C189.849 188.543 181.824 183.415 180.487 176.172C180.478 176.142 180.458 176.117 180.43 176.098C180.402 176.08 180.369 176.07 180.334 176.07C180.299 176.07 180.265 176.08 180.238 176.098C180.21 176.117 180.19 176.142 180.181 176.172C181.496 183.858 189.611 189.261 191.515 196.692C191.098 196.043 190.575 195.449 189.962 194.93C188.786 193.484 187.369 192.197 185.757 191.112C183.128 189.34 180.09 188.218 177.585 186.289C177.495 186.21 177.359 186.289 177.438 186.427C179.263 188.395 181.972 189.379 184.295 190.777C185.703 191.607 187.003 192.567 188.171 193.641C187.419 193.178 186.635 192.754 185.825 192.371C181.768 190.403 177.404 189.065 173.55 186.712C173.532 186.703 173.513 186.697 173.492 186.695C173.472 186.693 173.451 186.694 173.431 186.698C173.39 186.707 173.356 186.73 173.335 186.762C173.314 186.793 173.308 186.83 173.319 186.865C173.329 186.9 173.356 186.93 173.392 186.949Z" fill="white"/>
<path d="M198.814 178.15C198.82 178.948 198.602 179.735 198.18 180.443C198.18 180.502 198.032 180.443 198.055 180.443C198.319 179.714 198.486 178.961 198.554 178.199C198.576 178.032 198.803 178.012 198.814 178.15Z" fill="white"/>
<path d="M180.431 173.691C180.431 174.124 180.351 174.567 180.351 175.01C180.351 175.148 180.113 175.138 180.079 175.01C179.939 174.563 179.959 174.089 180.136 173.652C180.193 173.554 180.419 173.544 180.431 173.691Z" fill="white"/>
<path d="M171.42 185.019C171.648 185.174 171.864 185.341 172.066 185.521C172.079 185.537 172.087 185.555 172.088 185.574C172.09 185.593 172.085 185.612 172.074 185.629C172.063 185.646 172.047 185.66 172.027 185.668C172.008 185.677 171.986 185.681 171.964 185.679C171.652 185.614 171.38 185.449 171.204 185.216C171.091 185.098 171.284 184.911 171.42 185.019Z" fill="white"/>
<path d="M195.324 195.472C194.723 197.44 193.771 199.408 194.496 201.534C194.564 201.712 194.349 201.839 194.236 201.682C193.329 200.471 186.506 196.859 187.061 195.836C187.39 195.216 189.26 196.348 189.724 195.472C189.842 194.939 189.842 194.391 189.724 193.858C189.724 193.316 189.645 192.765 189.656 192.224C189.668 191.683 189.804 191.092 190.337 190.984C190.869 190.875 191.47 191.584 191.765 192.066C192.059 192.549 192.229 192.883 192.456 193.297C192.683 193.71 193.011 194.596 193.589 193.995C194.167 193.395 194.349 192.785 195.006 192.44C196.423 191.653 195.505 194.881 195.324 195.472Z" fill="#455A64"/>
<path d="M201.478 211.8C201.013 212.026 200.549 212.272 200.095 212.518L200.027 212.37C198.52 209.418 196.706 206.524 195.176 203.513C193.738 200.639 192.736 197.615 192.195 194.517C193.329 200.019 197.466 205.068 200.379 209.949C200.787 210.54 201.149 211.17 201.478 211.8Z" fill="#455A64"/>
<path d="M199.302 210.54C199.302 210.54 198.395 202.095 199.971 197.745C201.546 193.395 207.043 187.539 207.043 187.539C208.35 191.618 208.318 195.934 206.95 199.998C205.582 204.062 202.933 207.713 199.302 210.54Z" fill="#455A64"/>
<path d="M339.292 343.692C341.377 344.292 400.712 344.145 402.967 342.895C403.818 342.432 404.305 334.923 404.588 325.839C404.649 323.87 404.698 321.856 404.736 319.796C404.736 317.355 404.815 314.875 404.826 312.493C404.906 301.736 404.736 292.258 404.736 292.258H366.097V312.493V319.796L366.301 325.839C366.301 325.839 343.633 334.696 341.298 336.32C338.963 337.944 337.274 343.101 339.292 343.692Z" fill="#F7A9A0"/>
<path d="M404.645 323.86C404.645 324.53 404.645 325.189 404.588 325.829C404.305 334.913 403.817 342.422 402.967 342.885C400.7 344.135 341.377 344.282 339.291 343.682C337.206 343.082 339.042 337.905 341.331 336.31C342.567 335.454 349.639 332.511 355.941 329.962C354.026 331.458 351.408 333.732 352.133 334.539C354.037 336.724 392.46 332.147 402.876 324.874C403.421 324.481 404.014 324.141 404.645 323.86Z" fill="#263238"/>
<path d="M417.611 149.323C417.611 149.323 407.173 238.983 406.934 240.115C406.934 240.262 406.821 241.995 406.719 244.8C406.152 260.242 404.77 308.369 404.77 308.369H362.209C362.209 308.369 364.986 251.364 366.584 238.068C368.613 221.1 381.432 149.323 381.432 149.323H417.611Z" fill="#37474F"/>
<path d="M401.879 243.235C403.194 223.807 405.17 204.425 407.807 185.088C409.303 174.203 411.105 163.347 412.896 152.482C412.896 152.393 413.077 152.393 413.066 152.482C409.768 171.811 407.399 191.289 405.427 210.746C403.455 230.204 402.026 249.662 401.097 269.149C400.576 280.201 400.179 291.254 399.771 302.297C399.771 302.351 399.746 302.404 399.701 302.443C399.657 302.481 399.596 302.503 399.533 302.503C399.47 302.503 399.409 302.481 399.365 302.443C399.32 302.404 399.295 302.351 399.295 302.297C399.862 282.603 400.519 262.919 401.879 243.235Z" fill="#263238"/>
<path d="M364.861 302.405C365.995 302.277 378.939 302.11 383.914 302.11C388.165 302.11 401.505 302.405 402.967 302.395C403.081 302.395 403.069 302.493 402.967 302.513C401.222 302.749 393.628 302.926 385.478 302.926C380.514 302.926 365.507 302.621 364.861 302.552C364.844 302.547 364.829 302.537 364.818 302.524C364.808 302.51 364.802 302.495 364.802 302.479C364.802 302.463 364.808 302.447 364.818 302.434C364.829 302.42 364.844 302.41 364.861 302.405Z" fill="#263238"/>
<path d="M417.611 149.323C417.611 149.323 407.172 238.983 406.934 240.115C406.934 240.262 406.821 241.995 406.719 244.8L386.634 149.332L417.611 149.323Z" fill="#263238"/>
<path d="M420.241 344.036C422.428 344.145 479.689 330.641 481.446 328.929C482.137 328.279 480.312 320.927 477.921 312.089C477.399 310.18 476.935 308.153 476.255 306.184C475.405 303.714 474.52 301.263 473.625 298.872C469.805 288.567 466.122 280.034 466.122 280.034L429.852 288.488L436.313 307.188L438.954 314.865L440.948 320.662C440.948 320.662 421.68 334.342 419.935 336.409C418.189 338.476 418.064 343.918 420.241 344.036Z" fill="#F7A9A0"/>
<path d="M481.491 328.929C479.689 330.642 422.428 344.145 420.229 344.036C418.03 343.928 418.268 338.505 420.003 336.448C421.068 335.198 428.56 329.667 434.295 325.524C432.64 327.216 430.056 330.1 430.895 330.858C433.094 332.738 468.763 323.969 478.884 315.613C480.834 322.807 482.08 328.368 481.491 328.929Z" fill="#263238"/>
<path d="M381.398 149.323C381.398 149.323 384.209 162.265 394.614 168.859C394.614 168.859 409.269 238.826 411.116 246.739C414.698 262.122 429.784 306.027 429.784 306.027L473.285 294.492C473.285 294.492 454.515 241.503 451.999 235.942C450.628 232.911 440.109 174.922 440.325 173.554C442.886 156.989 433.83 149.234 433.83 149.234L381.398 149.323Z" fill="#37474F"/>
<path d="M415.888 152.206C416.755 154.811 418.588 157.094 421.102 158.702C423.877 160.415 427.164 161.393 430.566 161.517C431.133 161.517 431.178 162.314 430.566 162.314C423.63 162.314 416.602 158.495 415.594 152.246C415.582 152.098 415.843 152.069 415.888 152.206Z" fill="#263238"/>
<path d="M387.949 164.755C390.468 165.635 392.873 166.743 395.124 168.062C397.504 169.341 399.658 170.837 402.015 172.225C402.028 172.238 402.036 172.253 402.037 172.27C402.039 172.287 402.034 172.303 402.024 172.318C402.014 172.332 401.999 172.343 401.981 172.349C401.963 172.356 401.943 172.357 401.925 172.353C399.522 171.152 397.005 170.099 394.614 168.859C392.216 167.727 389.94 166.409 387.813 164.922C387.768 164.853 387.847 164.725 387.949 164.755Z" fill="#263238"/>
<path d="M386.975 152.187C387.349 153.565 387.802 154.923 388.222 156.301C388.641 157.678 388.924 158.899 389.355 160.168C389.746 161.4 390.532 162.509 391.622 163.367C392.234 163.81 392.903 164.204 393.549 164.617L394.682 165.267C394.682 165.089 394.58 164.902 394.523 164.715C394.387 164.194 394.263 163.662 394.127 163.141C393.843 161.979 393.56 160.808 393.299 159.637C392.767 157.344 392.268 155.021 391.599 152.748C391.599 152.729 391.608 152.712 391.622 152.699C391.637 152.686 391.658 152.679 391.679 152.679C391.7 152.679 391.72 152.686 391.735 152.699C391.75 152.712 391.758 152.729 391.758 152.748C392.54 154.992 393.39 157.206 394.093 159.47C394.433 160.572 395.736 166.074 395.804 166.467C395.872 166.861 395.929 167.274 395.963 167.678C396.047 168.087 396.07 168.504 396.031 168.918C396.031 169.026 395.872 169.016 395.816 168.918C395.604 168.543 395.447 168.146 395.351 167.737C395.215 167.343 395.09 166.95 394.988 166.546L394.886 166.113C394.24 165.798 393.628 165.385 393.027 165.04C392.427 164.696 391.713 164.302 391.089 163.889C389.94 163.122 389.083 162.072 388.63 160.877C388.179 159.591 387.856 158.274 387.666 156.94C387.383 155.375 387.156 153.801 386.816 152.246C386.794 152.128 386.952 152.088 386.975 152.187Z" fill="#263238"/>
<path d="M431.269 298.094C432.3 297.691 444.643 294.256 449.404 292.996C453.484 291.923 466.337 288.823 467.731 288.449C467.833 288.449 467.867 288.518 467.731 288.557C466.144 289.226 458.947 291.313 451.149 293.37C446.389 294.63 431.938 298.143 431.292 298.242C431.273 298.238 431.256 298.23 431.243 298.218C431.23 298.206 431.222 298.191 431.22 298.175C431.217 298.159 431.22 298.142 431.229 298.128C431.238 298.113 431.252 298.101 431.269 298.094Z" fill="#263238"/>
<path d="M454.799 259.159C453.076 254.809 451.33 250.469 449.642 246.109C447.973 241.83 446.628 237.46 445.618 233.029C443.544 223.994 441.753 214.89 440.064 205.786C439.218 201.193 438.413 196.574 437.65 191.929C437.287 189.645 436.928 187.349 436.573 185.039C436.233 182.815 435.814 180.6 435.678 178.356C435.156 170.07 438.557 161.31 434.408 153.397C433.944 152.515 433.374 151.677 432.708 150.897C432.651 150.828 432.515 150.897 432.572 150.976C438.103 158.485 435.066 167.609 434.907 175.886C435.009 180.422 435.52 184.943 436.437 189.409C437.193 193.936 437.975 198.457 438.783 202.971C440.393 212.032 442.169 221.074 444.11 230.096C444.959 234.532 446.117 238.92 447.579 243.235C449.154 247.585 450.979 251.876 452.679 256.187C456.17 264.897 465.147 286.697 465.589 287.799C465.589 287.888 465.804 287.849 465.759 287.75C462.359 279.01 458.267 267.919 454.799 259.159Z" fill="#263238"/>
<path d="M398.955 101.235C388.981 110.378 364.76 120.545 356.769 120.545C347.701 120.545 332.355 109.571 320.839 100.319C318.312 98.2919 333.885 78.3915 336.707 80.478C343.678 85.704 359.999 99.9749 362.527 100.319C366.222 100.821 381.115 97.3668 392.914 94.4733C405.994 91.2352 404.021 96.5893 398.955 101.235Z" fill="#F7A9A0"/>
<path d="M328.988 102.298C332.241 102.298 340.561 85.1528 338.917 82.6136C338.273 81.8157 337.511 81.0944 336.65 80.4681C334.644 76.8499 333.254 72.9974 332.525 69.0317C331.833 64.2681 331.448 57.1327 328.478 57.3591C324.16 57.674 323.412 66.7582 323.344 71.9941C320.51 70.567 317.915 69.573 316.158 69.4746C310.321 69.1498 305.345 91.5895 309.743 95.0637C314.141 98.5379 325.736 102.307 328.988 102.298Z" fill="#F7A9A0"/>
<path d="M303.373 99.3548C303.373 99.3548 309.822 100.339 312.996 97.4553C322.902 88.4598 311.67 60.3609 306.195 61.5026C300.721 62.6442 295.439 80.4287 295.439 80.4287L303.373 99.3548ZM303.622 96.6089L297.445 81.8459C297.445 81.8459 301.82 66.3645 306.071 65.4787C310.321 64.5929 318.822 88.1153 311.103 95.1129C308.632 97.3864 303.622 96.5892 303.622 96.5892V96.6089Z" fill="#37474F"/>
<path d="M249.456 85.3596L251.44 94.0894L242.848 98.4297L249.456 85.3596Z" fill="#455A64"/>
<path d="M282.042 119.816L315.739 106.864L288.163 65.6657L266.627 74.1397L282.042 119.816Z" fill="#455A64"/>
<path d="M288.162 65.6657L289.998 61.1778L262.241 71.5512L266.627 74.1397L288.162 65.6657Z" fill="#37474F"/>
<path d="M274.357 97.0321L277.973 107.76L249.331 95.1326L250.997 92.0914L274.357 97.0321Z" fill="#37474F"/>
<path d="M246.6 89.3357C243.438 86.6784 236.592 86.452 236.558 88.9716C236.558 90.3593 239.006 90.753 241.998 89.7688C243.466 89.2906 245.048 89.1416 246.6 89.3357Z" fill="#EBEBEB"/>
<path d="M241.93 98.2722C239.391 99.2564 237.578 102.613 239.244 103.193C240.173 103.538 241.035 102.396 241.103 100.654C241.146 99.8127 241.431 98.9941 241.93 98.2722Z" fill="#EBEBEB"/>
<path d="M242.905 93.6366C241.245 93.3512 239.535 93.3673 237.883 93.6841C236.231 94.0008 234.672 94.6113 233.305 95.4771C229.734 97.7211 227.638 102.366 231.038 103.518C232.353 104 234.212 103.026 235.651 101.195C237.838 98.3706 239.085 94.7389 242.905 93.6366Z" fill="#EBEBEB"/>
<path d="M325.021 71.5118C325.894 74.0412 321.961 73.4802 321.961 73.4802C321.961 73.4802 327.39 75.4486 327.118 78.4012C326.846 81.3538 322.131 80.3696 321.791 80.3696C322.086 80.4779 327.016 82.4266 326.404 85.2906C325.792 88.1546 321.179 86.7669 320.884 86.6685C321.122 86.8456 324.16 89.2077 323.151 91.3139C321.349 94.9358 313.381 89.0798 309.731 89.4833C309.731 89.4833 309.811 94.9259 309.731 95.0834C309.731 95.0834 302.024 89.6506 301.673 85.3398C301.617 84.7093 301.811 84.0812 302.223 83.56C302.636 83.0389 303.242 82.6562 303.94 82.4758C303.94 82.4758 301.231 80.97 301.673 78.667C301.877 77.4958 304.234 76.6986 304.234 76.6986C303.643 76.3283 303.18 75.8241 302.896 75.2409C302.612 74.6577 302.518 74.018 302.625 73.3917C303.022 71.7776 305.334 71.2658 305.334 71.2658C305.334 71.2658 303.962 69.2088 304.982 67.6735C306.966 64.5732 323.174 66.0791 325.021 71.5118Z" fill="#F7A9A0"/>
<path d="M305.595 71.1379C305.595 71.1379 305.538 71.069 305.595 71.069C311.277 70.3949 317.061 71.2394 322.177 73.4901C322.335 73.5688 322.267 73.8247 322.075 73.7755C316.758 72.2059 311.206 71.3173 305.595 71.1379Z" fill="#263238"/>
<path d="M304.076 76.6592C304.076 76.6592 304.076 76.5707 304.076 76.5608C310.349 75.8752 316.698 77.1636 321.973 80.1925C322.154 80.3008 322.199 80.5567 321.973 80.4386C318.289 78.5292 309.346 76.7675 304.076 76.6592Z" fill="#263238"/>
<path d="M321.168 86.9638C315.977 84.0112 310.23 82.8695 304.167 82.3971C304.087 82.3971 304.099 82.2987 304.167 82.2888C307.227 81.8164 311.081 82.466 314.027 83.1943C316.778 83.8257 319.29 85.071 321.315 86.8063C321.406 86.8752 321.281 87.0228 321.168 86.9638Z" fill="#263238"/>
<path d="M322.052 73.4409C322.245 73.5294 321.882 73.6771 322.052 73.7755C322.845 74.1692 327.39 76.9544 326.778 78.5882C326.291 79.8972 323.911 80.2318 322.947 80.0547L320.51 79.6019L322.619 80.7633C323.559 81.271 324.398 81.9094 325.101 82.6529C325.448 82.9808 325.711 83.3686 325.873 83.791C326.035 84.2133 326.092 84.6606 326.041 85.1036C325.994 85.5166 325.782 85.9024 325.443 86.195C325.104 86.4876 324.659 86.6689 324.183 86.7078C323.118 86.7832 322.049 86.6205 321.077 86.2354L318.346 85.2512L320.544 86.9441C321.157 87.4139 321.698 87.9497 322.154 88.5385C322.612 89.0831 322.873 89.7343 322.902 90.4084C322.904 90.7107 322.809 91.0076 322.627 91.2651C322.444 91.5226 322.182 91.7305 321.87 91.865C321.119 92.0783 320.312 92.0988 319.547 91.9241C317.887 91.5752 316.262 91.1145 314.685 90.5462C313.88 90.2805 313.064 90.0148 312.236 89.7785C311.421 89.5035 310.547 89.386 309.675 89.4341C310.535 89.4716 311.378 89.6555 312.157 89.9754C312.95 90.2608 313.732 90.5758 314.515 90.8907C316.078 91.5734 317.714 92.1238 319.4 92.5343C320.305 92.771 321.271 92.771 322.177 92.5343C322.656 92.3607 323.067 92.0686 323.357 91.6941C323.647 91.3197 323.804 90.8794 323.809 90.4281C323.795 89.5935 323.495 88.7813 322.947 88.0956C322.453 87.4321 321.863 86.8268 321.19 86.2945L320.658 87.0031C321.8 87.478 323.067 87.6817 324.33 87.5936C325.027 87.5322 325.676 87.2605 326.166 86.826C326.631 86.3856 326.932 85.8331 327.028 85.2414C327.098 84.6792 327.028 84.1104 326.823 83.5737C326.618 83.037 326.281 82.5451 325.837 82.1313C325.05 81.3231 324.116 80.6317 323.072 80.0842L322.743 80.7928C323.979 80.9897 326.676 80.8617 327.73 78.913C328.694 76.2065 323.117 73.8149 322.052 73.4409Z" fill="#263238"/>
<path d="M321.961 73.4802C322.587 73.4644 323.207 73.3648 323.798 73.185C324.036 73.1179 324.25 72.9968 324.418 72.8343C324.585 72.6717 324.7 72.4735 324.75 72.2598C324.775 71.7793 324.645 71.3022 324.376 70.882C324.092 70.3997 323.775 69.8978 323.424 69.4254C324.017 69.7126 324.535 70.1049 324.942 70.5769C325.424 71.0794 325.656 71.727 325.588 72.3779C325.505 72.729 325.304 73.0508 325.01 73.3031C324.718 73.5261 324.362 73.6758 323.979 73.7361C323.292 73.8394 322.585 73.7497 321.961 73.4802Z" fill="#263238"/>
<path d="M338.623 81.0291L328.422 112.779C328.422 112.779 347.577 121.204 355.692 121.352C363.807 121.499 387.145 112.12 399.805 101.195C404.69 96.9731 405.472 91.2057 393.537 93.7449C381.602 96.2841 365.145 99.1973 363.898 98.9808C362.651 98.7643 338.623 81.0291 338.623 81.0291Z" fill="#EBEBEB"/>
<path d="M344.392 86.324C343.474 88.5483 342.805 90.871 342.125 93.1445C341.445 95.418 340.697 97.7112 340.017 100.034C338.679 104.62 337.478 109.246 336.322 113.872C336.328 113.887 336.34 113.9 336.355 113.909C336.37 113.918 336.388 113.923 336.407 113.923C336.425 113.923 336.443 113.918 336.459 113.909C336.474 113.9 336.485 113.887 336.492 113.872C338.045 109.325 339.541 104.768 340.901 100.182C341.581 97.8916 342.227 95.5952 342.839 93.2921C343.451 90.9891 344.154 88.6763 344.573 86.3437C344.575 86.3334 344.574 86.3229 344.571 86.3128C344.567 86.3028 344.562 86.2934 344.555 86.2851C344.547 86.2769 344.538 86.27 344.528 86.2649C344.517 86.2597 344.506 86.2564 344.494 86.2551C344.482 86.2538 344.47 86.2546 344.458 86.2574C344.447 86.2601 344.436 86.2648 344.426 86.2712C344.417 86.2776 344.409 86.2856 344.403 86.2946C344.397 86.3037 344.393 86.3137 344.392 86.324Z" fill="#A6A6A6"/>
<path d="M382.225 129.885L379.562 153.929C379.562 153.929 426.293 152.521 437.367 151.37C437.367 151.37 423.902 107.209 411.298 96.4318C404.996 91.0482 397.991 91.7667 393.741 95.9003C392.608 96.9436 380.015 113.025 378.927 119.009C378.009 124.294 382.225 129.885 382.225 129.885Z" fill="#685AD6"/>
<path d="M406.753 63.284C408.226 65.1638 419.334 69.7305 425.137 61.4927C430.94 53.255 418.926 42.9012 409.575 48.6981C403.285 52.5857 403.636 59.2881 406.753 63.284Z" fill="#263238"/>
<path d="M405.88 94.9358C405.574 95.733 400.53 100.683 396.246 100.172C394.852 99.9946 395.577 93.3512 395.577 93.3512L395.509 92.8493L394.455 85.8221L404.305 81.3735L405.721 80.7928C405.721 80.7928 405.869 82.7612 406.016 85.143C406.016 85.2611 406.016 85.3694 406.016 85.4875V85.8812L406.084 86.9736C406.084 87.259 406.084 87.5248 406.084 87.82C406.084 88.1153 406.084 88.4007 406.084 88.696C406.182 90.7775 406.114 92.8624 405.88 94.9358Z" fill="#F7A9A0"/>
<path d="M406.016 85.143C405.014 87.0129 403.555 88.6709 401.741 90.0018C399.926 91.3326 397.8 92.3043 395.509 92.8493L394.455 85.8221L404.305 81.3735L405.721 80.7928C405.721 80.7928 405.869 82.7317 406.016 85.143Z" fill="#263238"/>
<path d="M384.878 73.9527C382.294 86.1764 390.432 88.9026 393.469 89.3849C396.223 89.8179 405.665 90.999 409.7 79.0803C413.735 67.1617 408 62.2407 401.766 60.9514C395.532 59.6621 387.405 61.7486 384.878 73.9527Z" fill="#F7A9A0"/>
<path d="M387.326 72.0532C387.645 72.0443 387.962 72.0213 388.278 71.9843C388.63 71.995 388.977 71.9051 389.264 71.7284C389.341 71.6583 389.389 71.5685 389.401 71.4726C389.413 71.3766 389.389 71.2798 389.332 71.1969C389.189 71.0464 389.002 70.9321 388.791 70.8663C388.579 70.8005 388.351 70.7855 388.131 70.8229C387.668 70.8341 387.227 70.9957 386.895 71.2756C386.828 71.3453 386.784 71.4305 386.771 71.521C386.758 71.6116 386.775 71.7035 386.82 71.7857C386.866 71.868 386.938 71.937 387.028 71.9844C387.117 72.0319 387.221 72.0558 387.326 72.0532Z" fill="#263238"/>
<path d="M396.768 73.2638C396.439 73.1949 396.155 73.0866 395.827 72.9882C395.481 72.9345 395.166 72.7821 394.931 72.5551C394.874 72.4717 394.851 72.3739 394.865 72.2775C394.879 72.1811 394.931 72.0917 395.011 72.0237C395.189 71.9052 395.401 71.83 395.624 71.8058C395.847 71.7815 396.073 71.8092 396.28 71.8859C396.724 71.9882 397.108 72.2303 397.357 72.565C397.41 72.6444 397.436 72.7357 397.43 72.8275C397.425 72.9193 397.388 73.0078 397.326 73.082C397.263 73.1562 397.177 73.2129 397.078 73.2452C396.979 73.2775 396.871 73.2839 396.768 73.2638Z" fill="#263238"/>
<path d="M394.319 75.8325C394.319 75.8325 394.387 75.8325 394.387 75.9112C394.217 76.7478 394.194 77.732 395.022 78.1159C393.945 77.8895 394.013 76.6002 394.319 75.8325Z" fill="#263238"/>
<path d="M395.317 75.055C396.892 75.1436 396.586 77.86 395.135 77.7812C393.685 77.7025 394.002 74.9861 395.317 75.055Z" fill="#263238"/>
<path d="M395.918 75.2518C396.178 75.429 396.416 75.7242 396.745 75.7833C397.074 75.8423 397.436 75.5864 397.72 75.3305C397.72 75.8522 397.38 76.3147 396.734 76.3836C396.088 76.4525 395.77 75.9112 395.68 75.3994C395.702 75.3207 395.816 75.1829 395.918 75.2518Z" fill="#263238"/>
<path d="M388.958 75.0648C388.958 75.0648 388.879 75.0648 388.879 75.1337C388.879 75.9801 388.596 76.9446 387.746 77.1021C388.777 77.1513 389.06 75.9211 388.958 75.0648Z" fill="#263238"/>
<path d="M388.187 74.12C386.635 73.8936 386.227 76.61 387.666 76.8167C389.105 77.0233 389.479 74.307 388.187 74.12Z" fill="#263238"/>
<path d="M387.508 74.2283C387.236 74.3365 386.952 74.5727 386.658 74.5629C386.363 74.5531 386.102 74.2184 385.932 73.9133C385.932 73.9133 385.932 73.9133 385.876 73.9133C385.785 74.4251 385.876 74.9861 386.454 75.1534C387.032 75.3207 387.417 74.8975 387.587 74.3956C387.678 74.3365 387.61 74.1791 387.508 74.2283Z" fill="#263238"/>
<path d="M393.798 82.3774C393.56 82.5644 393.311 82.8301 392.948 82.8399C392.587 82.8185 392.236 82.7313 391.917 82.5841C392.047 82.7557 392.229 82.8938 392.442 82.9838C392.656 83.0738 392.893 83.1125 393.129 83.0958C393.329 83.0601 393.512 82.9737 393.655 82.8475C393.799 82.7214 393.896 82.5612 393.934 82.3872C393.934 82.3872 393.832 82.3577 393.798 82.3774Z" fill="#263238"/>
<path d="M390.126 78.9623C390.126 78.9623 389.774 80.1925 389.695 80.7929C389.695 80.7929 389.854 80.8913 390.08 80.9208C390.654 81.0682 391.263 81.0754 391.841 80.9417C392.419 80.808 392.943 80.5385 393.356 80.163C393.413 80.163 393.356 80.0449 393.265 80.0744C392.332 80.5081 391.263 80.6703 390.216 80.537C390.216 80.3697 390.908 78.4308 390.794 78.4111C390.259 78.4033 389.725 78.4596 389.208 78.5784C389.865 75.9801 390.998 73.4901 391.61 70.9017C391.611 70.8831 391.605 70.8647 391.593 70.8492C391.582 70.8337 391.564 70.8218 391.544 70.8153C391.524 70.8087 391.502 70.8079 391.482 70.8128C391.461 70.8177 391.442 70.8281 391.429 70.8426C390.127 73.4733 389.128 76.2096 388.448 79.0115C388.38 79.3461 389.842 79.0311 390.126 78.9623Z" fill="#263238"/>
<path d="M390.193 80.4681C390.479 81.0116 390.925 81.4801 391.485 81.8263C391.793 82.0065 392.157 82.0994 392.528 82.092C393.344 82.092 393.526 81.4621 393.526 80.9011C393.515 80.6091 393.469 80.3189 393.39 80.035C392.404 80.4693 391.285 80.621 390.193 80.4681Z" fill="#263238"/>
<path d="M391.485 81.8263C391.793 82.0065 392.157 82.0993 392.528 82.092C393.344 82.092 393.526 81.4621 393.526 80.9011C393.115 80.8339 392.691 80.8887 392.321 81.0565C391.951 81.2244 391.656 81.4955 391.485 81.8263Z" fill="#FF9ABB"/>
<path d="M409.507 79.1985C408.61 78.7824 407.853 78.1707 407.31 77.4235C406.767 76.6763 406.458 75.8193 406.413 74.9369C403.976 73.9232 401.895 72.3638 400.383 70.4194C400.474 70.6753 401.086 72.5256 401.426 73.4606C398.936 73.0609 396.595 72.1453 394.6 70.7917C392.605 69.4381 391.015 67.6864 389.967 65.6854C388.192 67.0051 386.785 68.6574 385.853 70.5178C385.853 70.5178 386.023 65.7641 388.935 62.6442C398.74 52.0444 409.519 63.3824 409.519 63.3824C409.519 63.3824 413.134 65.1638 413.622 68.3034C414.574 74.553 409.507 79.1985 409.507 79.1985Z" fill="#263238"/>
<path d="M394.648 71.9843C396.059 72.7116 397.587 73.2522 399.182 73.5886C396.681 72.9203 394.446 71.655 392.733 69.9372C392.004 69.2031 391.383 68.3931 390.885 67.5259C390.305 66.6133 389.939 65.6097 389.808 64.5733C389.808 64.4946 389.672 64.5044 389.672 64.5733C389.669 65.628 389.868 66.6758 390.262 67.6735C390.706 68.6439 391.347 69.5372 392.155 70.3112C392.884 70.9895 393.72 71.5758 394.637 72.0532" fill="#263238"/>
<path d="M407.206 78.608C407.206 78.608 410.743 75.0058 412.647 76.1376C414.551 77.2694 411.604 82.6727 409.156 83.2435C408.847 83.3347 408.519 83.3706 408.193 83.3493C407.868 83.3279 407.55 83.2496 407.26 83.119C406.97 82.9885 406.714 82.8085 406.506 82.5897C406.298 82.371 406.143 82.118 406.05 81.846L407.206 78.608Z" fill="#F7A9A0"/>
<path d="M411.763 77.6631C411.763 77.6631 411.763 77.6631 411.763 77.7221C410.964 77.9896 410.239 78.3993 409.634 78.9248C409.029 79.4502 408.557 80.0799 408.249 80.7732C408.362 80.6372 408.507 80.524 408.675 80.4411C408.843 80.3582 409.03 80.3076 409.222 80.2927C409.414 80.2777 409.608 80.2989 409.79 80.3546C409.972 80.4103 410.139 80.4993 410.278 80.6157C410.278 80.6157 410.278 80.7043 410.221 80.6944C409.938 80.5897 409.625 80.5637 409.325 80.6201C409.024 80.6765 408.751 80.8125 408.544 81.0094C408.194 81.3383 407.889 81.7017 407.637 82.092C407.546 82.2101 407.285 82.092 407.353 81.9739C407.546 80.1039 409.462 77.6631 411.763 77.6631Z" fill="#263238"/>
<path d="M406.209 93.3808C406.209 93.3808 402.253 110.033 404.577 133.044C408.952 176.437 421.351 240.548 424.332 244.8C428.866 251.325 476.402 255.518 476.402 255.518C466.567 219.213 454.217 183.458 439.418 148.447C439.418 148.447 429.671 124.019 426.214 117.503C413.213 93.0953 406.209 93.3808 406.209 93.3808Z" fill="#EBEBEB"/>
<path d="M450.73 184.035C446.368 185.201 441.928 186.134 437.435 186.83C431.144 187.716 424.786 188.061 422.984 188.287C422.814 188.287 422.825 188.779 422.984 188.779C425.375 188.71 432.72 188.326 437.526 187.657C441.92 187.002 446.24 186.014 450.435 184.705C450.628 185.866 450.787 186.771 451.002 187.923C446.706 189.291 438.376 191.781 424.242 192.175C424.117 191.692 423.709 189.104 423.46 188.415C423.46 188.307 422.904 188.366 422.916 188.533C422.916 189.242 423.754 195.481 423.981 196.741C424.536 199.851 426.395 208.552 427.597 210.166C430.328 213.729 438.931 212.528 441.345 212.213C443.759 211.898 451.467 211.022 453.904 208.178C455.196 206.652 454.21 199.497 452.77 193.247C452.113 190.295 450.945 184.065 450.73 184.035ZM441.844 211.366C434.216 212.439 430.646 211.524 429.217 210.304C427.54 208.886 426.951 206.091 426.225 203.011C425.693 200.589 424.378 192.952 424.332 192.795C433.472 192.927 442.558 191.548 451.104 188.73C451.795 192.342 452.339 195.226 453.019 198.847C453.507 201.465 454.153 205.875 452.883 207.617C451.841 209.073 447.352 210.589 441.844 211.366Z" fill="#A6A6A6"/>
<path d="M438.523 186.151C439.94 189.734 438.387 195.482 441.64 195.393C444.541 195.314 445.165 191.24 445.165 191.24C445.165 191.24 446.162 196.033 449.245 195.176C452.328 194.32 451.977 189.734 451.977 189.734C451.977 189.734 452.6 193.749 455.603 192.686C458.607 191.623 459.128 187.697 459.128 187.697C459.128 187.697 460.262 188.74 461.962 187.175C464.456 184.931 463.39 178.258 461.894 174.882C460.398 171.506 451.999 160.119 450.673 158.417L425.681 166.625C425.681 166.625 425.182 173.691 425.42 177.303C425.658 180.915 430.283 192.618 433.706 191.82C437.129 191.023 433.706 182.805 433.377 180.63C433.048 178.455 433.57 178.022 434.59 178.908C435.258 179.478 437.899 184.537 438.523 186.151Z" fill="#F7A9A0"/>
<path d="M445.085 191.072C445.505 185.344 444.541 182.776 441.424 177.825C441.368 177.727 441.515 177.628 441.594 177.717C445.153 182.333 446.887 185.403 445.403 191.102C445.335 191.328 445.063 191.289 445.085 191.072Z" fill="#263238"/>
<path d="M451.897 189.95C451.727 183.976 450.764 181.181 447.885 175.788C447.885 175.709 447.998 175.64 448.043 175.719C451.33 180.807 452.974 183.907 452.237 189.901C452.203 190.167 451.897 190.226 451.897 189.95Z" fill="#263238"/>
<path d="M459.072 187.637C458.438 181.86 457.474 178.78 453.961 173.859C453.948 173.847 453.938 173.834 453.932 173.819C453.926 173.804 453.924 173.788 453.926 173.772C453.928 173.756 453.934 173.741 453.943 173.727C453.953 173.714 453.966 173.702 453.981 173.693C453.996 173.684 454.013 173.679 454.031 173.676C454.049 173.674 454.068 173.675 454.085 173.679C454.103 173.684 454.119 173.692 454.133 173.702C454.147 173.713 454.157 173.726 454.165 173.741C458.313 178.465 459.537 182.333 459.276 187.637C459.254 187.962 459.118 188.002 459.072 187.637Z" fill="#263238"/>
<path d="M414.993 100.437C429.818 117.907 449.302 154.795 451.852 160.7C453.586 164.696 427.302 172.815 426.588 169.942C425.693 166.27 411.797 120.19 408.091 103.114C406.05 93.7055 411.332 96.1168 414.993 100.437Z" fill="#F7A9A0"/>
<path d="M421.148 163.515L451.909 156.832C451.909 156.832 423.743 109.266 415.968 100.398C408.034 91.3828 406.606 96.4613 408.034 106.126C409.655 116.559 421.148 163.515 421.148 163.515Z" fill="#EBEBEB"/>
<path d="M447.726 153.929C445.629 154.145 443.544 154.627 441.481 155.011C439.418 155.395 437.333 155.799 435.27 156.212C431.133 157.039 426.996 157.885 422.916 158.889C422.898 158.895 422.883 158.905 422.873 158.918C422.862 158.931 422.856 158.947 422.856 158.963C422.856 158.979 422.862 158.995 422.873 159.008C422.883 159.021 422.898 159.031 422.916 159.037C427.098 158.407 431.246 157.6 435.383 156.773C437.412 156.369 439.43 155.946 441.447 155.523C443.465 155.1 445.697 154.716 447.738 154.116C447.76 154.108 447.779 154.095 447.792 154.077C447.805 154.06 447.812 154.039 447.81 154.019C447.809 153.998 447.8 153.978 447.785 153.962C447.77 153.946 447.749 153.934 447.726 153.929Z" fill="#A6A6A6"/>
<path d="M424.457 162.786C423.879 162.786 421.533 163.013 421.442 163.042C421.442 162.786 419.912 154.283 419.504 152.521C418.711 149.077 417.861 145.632 417.033 142.197C415.344 135.239 413.554 128.3 411.808 121.352C410.822 117.415 409.802 113.547 408.703 109.659C408.703 109.571 408.521 109.61 408.533 109.709C408.997 111.982 409.485 114.246 409.995 116.519C409.507 115.535 408.997 114.551 408.555 113.567C408.555 113.478 408.34 113.567 408.385 113.567C408.85 114.551 409.247 115.643 409.677 116.677C409.904 117.228 410.153 117.769 410.414 118.301C411.343 122.405 412.318 126.499 413.282 130.593C414.914 137.561 416.523 144.539 418.291 151.488C418.779 153.397 420.91 163.593 420.989 163.574C421.068 163.554 423.992 163.013 424.537 162.816C424.548 162.875 424.548 162.777 424.457 162.786Z" fill="#A6A6A6"/>
<path d="M395.249 94.6799C395.249 94.6799 386.805 104.345 384.323 134.766C381.636 167.589 375.901 238.708 375.459 241.227C375.017 243.747 363.184 249.632 363.184 249.632L381.398 129.993C381.398 129.993 377.998 124.088 378.61 119.747C379.358 113.96 391.984 95.9692 395.249 94.6799Z" fill="#EBEBEB"/>
<path d="M386.351 105.191C385.501 106.175 384.742 107.327 383.994 108.429L384.13 108.035C384.345 107.465 384.515 106.874 384.674 106.284C384.674 106.284 384.617 106.225 384.595 106.284C384.357 106.854 384.119 107.435 383.937 108.016L383.597 109C383.144 109.65 381.693 112.415 381.33 113.075C381.274 113.163 381.444 113.242 381.489 113.153C381.852 112.474 383.654 109.866 384.051 109.217C384.833 107.868 385.717 106.559 386.499 105.201L386.351 105.191Z" fill="#A6A6A6"/>
<path d="M395.249 94.6799C392.46 97.8359 389.653 100.982 386.827 104.118V103.863L389.015 105.565L389.185 105.703L389.026 105.86L384.492 110.329L384.56 110.181C384.56 114.275 384.56 118.379 384.56 122.474C384.56 126.568 384.447 130.672 384.322 134.766C384.186 130.672 384.118 126.568 384.073 122.474C384.028 118.379 384.016 114.275 384.073 110.181V110.092L384.13 110.024L388.663 105.585V105.87L386.521 104.138L386.374 104.02L386.499 103.882C389.393 100.792 392.309 97.7244 395.249 94.6799Z" fill="#A6A6A6"/>
<path d="M406.186 93.3513C407.698 97.1306 409.186 100.92 410.652 104.719L410.732 104.916H410.493L406.254 105.634L406.413 105.447L408.816 110.594V110.663C408.215 114.6 407.524 118.635 406.867 122.611C406.209 126.588 405.472 130.574 404.702 134.55C405.223 130.547 405.786 126.552 406.39 122.562C407.014 118.566 407.615 114.58 408.295 110.594V110.713L405.937 105.555L405.824 105.309H406.118L410.369 104.63L410.199 104.876C408.861 101.018 407.547 97.1798 406.186 93.3513Z" fill="#A6A6A6"/>
<path d="M478.623 372.657H345.718V387.351H478.623V372.657Z" fill="#455A64"/>
<path d="M454.413 344.036H339.688V358.731H454.413V344.036Z" fill="#455A64"/>
<path d="M346.058 398.817H336.311L346.364 358.73H366.176L346.058 398.817Z" fill="#455A64"/>
<path d="M346.375 358.721H366.176L361.144 368.75H343.859L346.375 358.721Z" fill="#37474F"/>
<path d="M448.066 398.817H457.814L447.749 358.73H427.937L448.066 398.817Z" fill="#455A64"/>
<path d="M450.265 368.75H432.969L427.937 358.721H447.749L450.265 368.75Z" fill="#37474F"/>
</svg>
